<?xml version="1.0" encoding="UTF-8"?>
<svg width="28px" height="28px" viewBox="0 0 28 28" version="1.1" xmlns="http://www.w3.org/2000/svg" xmlns:xlink="http://www.w3.org/1999/xlink">
    <!-- Generator: Sketch 50.2 (55047) - http://www.bohemiancoding.com/sketch -->
    <title>cc</title>
    <desc>Created with Sketch.</desc>
    <defs></defs>
    <g id="0923-无关系链" stroke="none" stroke-width="1" fill="none" fill-rule="evenodd">
        <g id="Group-33-Copy-2">
            <rect id="Rectangle-54" stroke="#979797" stroke-width="0.583333333" fill="#D8D8D8" opacity="0" x="0.291666667" y="0.291666667" width="27.4166667" height="27.4166667"></rect>
            <path d="M5,4 C4.44771525,4 4,4.44771525 4,5 L4,23.8333333 C4,23.9253808 4.07461921,24 4.16666667,24 L23.8333333,24 C23.9253808,24 24,23.9253808 24,23.8333333 L24,5 C24,4.44771525 23.5522847,4 23,4 L5,4 Z" id="Combined-Shape" stroke="#1588F4" stroke-width="2"></path>
            <path d="M4,7 L4,13 L2,13 L2,9 C2,7.8954305 2.8954305,7 4,7 Z" id="Rectangle-7" fill="#1588F4"></path>
            <path d="M24,7 L24,7 C25.1045695,7 26,7.8954305 26,9 L26,13 L24,13 L24,7 Z" id="Rectangle-7-Copy" fill="#1588F4"></path>
            <path d="M8,16 L20,16 L20,8.16666667 C20,8.07461921 19.9253808,8 19.8333333,8 L8.16666667,8 C8.07461921,8 8,8.07461921 8,8.16666667 L8,16 Z" id="Rectangle-51-Copy" stroke="#1588F4" stroke-width="2"></path>
            <rect id="Rectangle-53" fill="#1588F4" x="7" y="19" width="2" height="2"></rect>
            <rect id="Rectangle-53-Copy" fill="#1588F4" x="19" y="19" width="2" height="2"></rect>
        </g>
    </g>
</svg>