<?xml version="1.0" encoding="UTF-8"?>
<svg width="28px" height="28px" viewBox="0 0 28 28" version="1.1" xmlns="http://www.w3.org/2000/svg" xmlns:xlink="http://www.w3.org/1999/xlink">
    <!-- Generator: Sketch 50.2 (55047) - http://www.bohemiancoding.com/sketch -->
    <title>cd</title>
    <desc>Created with Sketch.</desc>
    <defs></defs>
    <g id="0923-无关系链" stroke="none" stroke-width="1" fill="none" fill-rule="evenodd">
        <g id="Group-4-Copy-3">
            <rect id="Rectangle-Copy-2" x="0" y="0" width="28" height="28"></rect>
            <g id="Group-14-Copy-2" transform="translate(2.000000, 2.000000)">
                <circle id="Oval-10" stroke="#1AAD19" stroke-width="2" cx="12" cy="12" r="11"></circle>
                <path d="M11.7064594,5.24037746 L8.32446945,12.9185058 C8.27994432,13.0195911 8.32579545,13.1376318 8.42688081,13.1821569 C8.44661472,13.1908491 8.46762445,13.1962928 8.48909639,13.1982771 L11.7561255,13.5001951 L12.2508815,13.5459173 L11.3318534,19.137688 C11.3139398,19.2466827 11.3877755,19.3495622 11.4967702,19.3674759 C11.5865595,19.3822331 11.6749928,19.3345195 11.7119586,19.2513725 L15.2366677,11.3232579 C15.2815403,11.2223263 15.2360954,11.1041286 15.1351638,11.0592561 C15.1143816,11.0500167 15.0921758,11.0443897 15.0695015,11.0426172 L11.6603284,10.7761186 L11.2183544,10.7477929 L12.0869478,5.35278787 C12.1045053,5.24373524 12.0303338,5.14109752 11.9212811,5.1235401 C11.8314314,5.10907433 11.7431441,5.15709206 11.7064594,5.24037746 Z" id="Path-3" fill="#1AAD19" transform="translate(11.781089, 12.245191) rotate(30.000000) translate(-11.781089, -12.245191) "></path>
            </g>
        </g>
    </g>
</svg>