<?xml version="1.0" encoding="UTF-8"?>
<svg width="28px" height="28px" viewBox="0 0 28 28" version="1.1" xmlns="http://www.w3.org/2000/svg" xmlns:xlink="http://www.w3.org/1999/xlink">
    <!-- Generator: Sketch 50.2 (55047) - http://www.bohemiancoding.com/sketch -->
    <title>gp</title>
    <desc>Created with Sketch.</desc>
    <defs></defs>
    <g id="0923-无关系链" stroke="none" stroke-width="1" fill="none" fill-rule="evenodd">
        <g id="Group-34-Copy-3">
            <g id="icon28-copy-3" stroke="#1AAD19" stroke-width="2">
                <g id="Group-2" transform="translate(3.000000, 3.000000)">
                    <path d="M16.5010684,2.38932026 C16.1333758,2.86757653 15.9147683,3.46641362 15.9147683,4.11630923 C15.9147683,5.68255915 17.1844648,6.95225558 18.7507147,6.95225558 C19.4006103,6.95225558 19.9994474,6.73364812 20.4777037,6.36595553 L22.8163007,8.70455252 C23.0612331,8.94948498 23.0612331,9.34659897 22.8163007,9.59153144 L9.59153144,22.8163007 C9.34659897,23.0612331 8.94948498,23.0612331 8.70455252,22.8163007 L0.183699348,14.2954475 C-0.061233116,14.050515 -0.061233116,13.653401 0.183699348,13.4084686 L13.4084686,0.183699348 C13.653401,-0.061233116 14.050515,-0.061233116 14.2954475,0.183699348 L16.5010684,2.38932026 Z" id="Combined-Shape"></path>
                </g>
            </g>
            <polygon id="Rectangle-49" fill="#1AAD19" transform="translate(10.921886, 17.821523) rotate(-315.000000) translate(-10.921886, -17.821523) " points="7.75660911 16.8469954 14.0871633 16.8056785 14.0871633 18.796051 7.75660911 18.8373679"></polygon>
        </g>
    </g>
</svg>