<?xml version="1.0" encoding="UTF-8"?>
<svg width="28px" height="28px" viewBox="0 0 28 28" version="1.1" xmlns="http://www.w3.org/2000/svg" xmlns:xlink="http://www.w3.org/1999/xlink">
    <!-- Generator: Sketch 50.2 (55047) - http://www.bohemiancoding.com/sketch -->
    <title>gw</title>
    <desc>Created with Sketch.</desc>
    <defs></defs>
    <g id="====slice===" stroke="none" stroke-width="1" fill="none" fill-rule="evenodd">
        <g id="Artboard-2" transform="translate(-444.000000, -871.000000)">
            <g id="Group-12-Copy" transform="translate(444.000000, 871.000000)">
                <rect id="Rectangle-Copy-5" x="0" y="0" width="28" height="28"></rect>
                <g id="icon37-copy">
                    <g id="Group-8" transform="translate(3.000000, 1.000000)">
                        <path d="M1.28333333,7.5 C1.12685265,7.5 1,7.62685265 1,7.78333333 L1,22 C1,23.6568542 2.34314575,25 4,25 L18,25 C19.6568542,25 21,23.6568542 21,22 L21,7.78333333 C21,7.62685265 20.8731473,7.5 20.7166667,7.5 L1.28333333,7.5 Z" id="Rectangle-701" stroke="#FA9D3B" stroke-width="2"></path>
                        <path d="M6,5 C6,2.23857625 8.23857625,0 11,0 C13.7614237,0 16,2.23857625 16,5 L16,12 L14,12 L14,5.41666667 L13.9712975,5.41666667 C13.9902193,5.28048865 14,5.14138653 14,5 C14,3.34314575 12.6568542,2 11,2 C9.34314575,2 8,3.34314575 8,5 C8,5.14138653 8.00978071,5.28048865 8.02870245,5.41666667 L8,5.41666667 L8,12 L6,12 L6,5.00000013 Z" id="Combined-Shape" fill="#FA9D3B"></path>
                    </g>
                </g>
            </g>
            <g id="Group-12-Copy" transform="translate(444.000000, 871.000000)">
                <rect id="Rectangle-Copy-5" x="0" y="0" width="28" height="28"></rect>
                <g id="icon37-copy">
                    <g id="Group-8" transform="translate(3.000000, 1.000000)">
                        <path d="M1.28333333,7.5 C1.12685265,7.5 1,7.62685265 1,7.78333333 L1,22 C1,23.6568542 2.34314575,25 4,25 L18,25 C19.6568542,25 21,23.6568542 21,22 L21,7.78333333 C21,7.62685265 20.8731473,7.5 20.7166667,7.5 L1.28333333,7.5 Z" id="Rectangle-701" stroke="#FA9D3B" stroke-width="2"></path>
                        <path d="M6,5 C6,2.23857625 8.23857625,0 11,0 C13.7614237,0 16,2.23857625 16,5 L16,12 L14,12 L14,5.41666667 L13.9712975,5.41666667 C13.9902193,5.28048865 14,5.14138653 14,5 C14,3.34314575 12.6568542,2 11,2 C9.34314575,2 8,3.34314575 8,5 C8,5.14138653 8.00978071,5.28048865 8.02870245,5.41666667 L8,5.41666667 L8,12 L6,12 L6,5.00000013 Z" id="Combined-Shape" fill="#FA9D3B"></path>
                    </g>
                </g>
            </g>
            <g id="g'w" transform="translate(444.000000, 871.000000)">
                <rect id="Rectangle-Copy-5" x="0" y="0" width="28" height="28"></rect>
                <g id="icon37-copy">
                    <g id="Group-8" transform="translate(3.000000, 1.000000)">
                        <path d="M1.28333333,7.5 C1.12685265,7.5 1,7.62685265 1,7.78333333 L1,22 C1,23.6568542 2.34314575,25 4,25 L18,25 C19.6568542,25 21,23.6568542 21,22 L21,7.78333333 C21,7.62685265 20.8731473,7.5 20.7166667,7.5 L1.28333333,7.5 Z" id="Rectangle-701" stroke="#FA9D3B" stroke-width="2"></path>
                        <path d="M6,5 C6,2.23857625 8.23857625,0 11,0 C13.7614237,0 16,2.23857625 16,5 L16,12 L14,12 L14,5.41666667 L13.9712975,5.41666667 C13.9902193,5.28048865 14,5.14138653 14,5 C14,3.34314575 12.6568542,2 11,2 C9.34314575,2 8,3.34314575 8,5 C8,5.14138653 8.00978071,5.28048865 8.02870245,5.41666667 L8,5.41666667 L8,12 L6,12 L6,5.00000013 Z" id="Combined-Shape" fill="#FA9D3B"></path>
                    </g>
                </g>
            </g>
        </g>
    </g>
</svg>