<?xml version="1.0" encoding="UTF-8"?>
<svg width="28px" height="28px" viewBox="0 0 28 28" version="1.1" xmlns="http://www.w3.org/2000/svg" xmlns:xlink="http://www.w3.org/1999/xlink">
    <!-- Generator: Sketch 50.2 (55047) - http://www.bohemiancoding.com/sketch -->
    <title>jf</title>
    <desc>Created with Sketch.</desc>
    <defs></defs>
    <g id="0923-无关系链" stroke="none" stroke-width="1" fill="none" fill-rule="evenodd">
        <g id="icon11-copy-2">
            <g id="Group-19" transform="translate(1.333333, 1.333333)">
                <path d="M13.1884058,23.6666667 C18.7417989,23.6666667 23.6666667,18.7417989 23.6666667,13.1884058 C23.6666667,6.74489563 18.8845664,1.66666667 13.1884058,1.66666667 C6.59153442,1.66666667 1.66666667,6.59153442 1.66666667,13.1884058 C1.66666667,18.8845664 6.74489563,23.6666667 13.1884058,23.6666667 Z" id="Oval-78" stroke="#FF9808" stroke-width="2"></path>
                <path d="M14.9809172,11.0742467 L16.75,11.0742467 L16.75,13.0742467 L13.6590689,13.0742467 L13.6590689,14.4393594 L16.75,14.4393594 L16.75,16.4393594 L13.6590689,16.4393594 L13.6590689,18.239495 L11.6590689,18.239495 L11.6590689,16.4393594 L8.58333333,16.4393594 L8.58333333,14.4393594 L11.6590689,14.4393594 L11.6590689,13.0742467 L8.58333333,13.0742467 L8.58333333,11.0742467 L10.5247933,11.0742467 L8.65702621,7.33871245 L10.9903595,7.33871245 L12.7528553,10.8637039 L14.5344195,7.30057543 L16.8677528,7.30057543 L14.9809172,11.0742467 Z" id="Combined-Shape" fill="#FF9808"></path>
            </g>
        </g>
    </g>
</svg>