<?xml version="1.0" encoding="UTF-8"?>
<svg width="28px" height="28px" viewBox="0 0 28 28" version="1.1" xmlns="http://www.w3.org/2000/svg" xmlns:xlink="http://www.w3.org/1999/xlink">
    <!-- Generator: Sketch 50.2 (55047) - http://www.bohemiancoding.com/sketch -->
    <title>md</title>
    <desc>Created with Sketch.</desc>
    <defs>
        <path d="M23.4395681,7.93760341 C21.4023369,5.55632411 18.0470966,4 14.25,4 C8.03664033,4 3,8.16252068 3,13.2976147 C3,16.0992566 4.51534549,18.6211738 6.88703193,20.3253746 C7.0775906,20.4603249 7.201936,20.6813643 7.201936,20.9311001 C7.201936,21.0138282 7.18420961,21.0895762 7.16257299,21.168168 C6.97305705,21.8690309 6.66988368,22.9912906 6.65554616,23.0437713 C6.63208476,23.13167 6.6996146,22.8381799 6.59506789,23.3157402 C6.49052118,23.7933004 6.65554616,23.7933004 6.97018954,23.6875 C7.28483293,23.5816996 7.11799634,23.657511 7.18681643,23.6182151 L9.64974163,22.2082165 C9.83482598,22.1019625 10.0311197,22.036297 10.2469645,22.036297 C10.362186,22.036297 10.4732366,22.0538767 10.5777702,22.0856754 C11.7268572,22.4134858 12.966401,22.5954879 14.25,22.5954879 C20.463099,22.5954879 25.5,18.4327087 25.5,13.2976147 C25.5,11.7423247 25.0354644,10.2775186 24.2184864,8.98928555 L23.4395681,7.93760341 Z" id="path-1"></path>
    </defs>
    <g id="0923-无关系链" stroke="none" stroke-width="1" fill="none" fill-rule="evenodd">
        <g id="Group-21-Copy">
            <rect id="Rectangle-36" fill="#D8D8D8" opacity="0" x="0" y="0" width="28" height="28"></rect>
            <g id="Fill-15" stroke="#1AAD19">
                <use stroke-width="1.6" xlink:href="#path-1"></use>
                <path stroke-width="1.2" d="M7.33107179,22.8442639 L7.08138402,22.9872074 L6.09388514,22.8230422 C6.06521244,22.9219659 6.06521244,22.9219659 6.06057272,22.9488928 C6.05813482,22.961656 6.05813482,22.961656 6.05299508,23.0028609 C6.04055669,23.0250328 6.04055669,23.0250328 6.105141,23.3122356 L6.26373966,23.5203927 L6.5918808,23.5403838 L6.5802553,23.7513495 L6.71170399,24.020269 L6.91454611,24.1745216 L7.07094518,24.2228091 C7.43546561,24.1842677 7.43546561,24.1842677 7.53108816,24.1094386 C7.63118084,24.0526225 7.63118084,24.0526225 7.77157008,23.6434512 C7.49626316,23.0740577 7.48360886,23.0478859 7.27954688,23.0348583 C7.29311696,22.9846718 7.31013189,22.921732 7.33107179,22.8442639 Z M7.48912467,24.1365131 C7.49294451,24.1341036 7.50042343,24.1290769 7.52055651,24.1155452 C7.54700318,24.0974838 7.54700318,24.0974838 7.62255392,24.0220428 C7.69522414,23.9250808 7.69522414,23.9250808 7.75571037,23.5098845 L7.62431494,23.2410763 L7.42157763,23.0869008 L7.26533081,23.0386578 L7.22883637,23.034422 C7.20189971,22.9689538 7.14615619,22.8452895 7.03672257,22.6025161 L6.32237055,22.5589856 L6.15422111,22.7239548 C6.12847154,22.7639123 6.12847154,22.7639123 6.10476274,22.8117647 C6.0717544,22.8995147 6.0717544,22.8995147 6.0767568,22.8856483 C6.08439684,22.8576828 6.16601649,22.5557093 6.4045412,21.6731032 C6.40461107,21.6728446 6.40461107,21.6728446 6.40468095,21.6725861 C6.49855519,21.3252696 6.49855519,21.3252696 6.58409472,21.0089107 C6.59842668,20.956852 6.601936,20.937623 6.601936,20.9311001 C6.601936,20.8850236 6.57950985,20.8428126 6.53691111,20.8126275 C3.94043588,18.9469023 2.4,16.2239039 2.4,13.2976147 C2.4,7.80319797 7.72782916,3.4 14.25,3.4 C18.1192776,3.4 21.682028,4.96028631 23.8954875,7.54755538 L23.9217255,7.5804981 L24.7251827,8.66794641 C25.6224799,10.082829 26.1,11.6617009 26.1,13.2976147 C26.1,18.7920027 20.7719428,23.1954879 14.25,23.1954879 C12.9368537,23.1954879 11.6412692,23.0130071 10.4031532,22.659704 C10.3522449,22.644218 10.2999745,22.636297 10.2469645,22.636297 C10.1543752,22.636297 10.0599366,22.6645726 9.94784132,22.7289243 L7.48912467,24.1365131 Z M6.73944957,23.2001681 C6.69812359,23.2458416 6.66791218,23.3338999 6.57194063,23.6136319 C6.86022805,24.2096476 6.86022805,24.2096476 7.09270464,24.2228291 C7.25854435,24.217776 7.29839012,24.2165619 7.29885298,24.2157396 C7.26307733,24.222789 7.22143366,24.23603 7.16142102,24.2562095 C6.78860031,24.3815724 6.56862651,24.409659 6.28526105,24.2146307 C5.93841611,23.9759122 5.90943382,23.6420022 6.00894849,23.1874279 C6.04254514,23.0334937 6.04254514,23.0334937 6.05849195,22.9591225 C6.06359379,22.9350539 6.0638588,22.9338037 6.06569726,22.9248769 C6.06622167,22.9223448 6.06597106,22.9236608 6.06546985,22.9262928 C6.06446204,22.9314041 6.06446204,22.9314041 6.05997634,22.9626653 C6.05896401,22.9716578 6.05896401,22.9716578 6.05601932,23.0509623 L6.73944957,23.2001681 Z M7.29885298,24.2157396 C7.29899936,24.2154796 7.29520685,24.2152587 7.29021497,24.214968 C7.28905085,24.2152969 7.28783364,24.2156446 7.28656331,24.2160112 Z"></path>
            </g>
            <path d="M11.4372972,17.0729064 C11.3356312,17.123836 11.2211917,17.1530494 11.0997138,17.1530494 C10.8186984,17.1530494 10.5739179,16.9994852 10.4456622,16.7724997 L10.396654,16.6657286 L8.34847414,12.2087473 C8.32631616,12.1601445 8.3125,12.1055956 8.3125,12.0520808 C8.3125,11.8468114 8.48037932,11.6800624 8.68762165,11.6800624 C8.77182199,11.6800624 8.8492446,11.7077247 8.91206901,11.7540007 L11.3285928,13.4605282 C11.5053353,13.5750551 11.7162272,13.6422717 11.9430207,13.6422717 C12.0785754,13.6422717 12.2076131,13.6174533 12.3277876,13.5737624 L23.6937911,8.55707317 C21.6565599,6.17579388 25.2896874,10.8969884 24.4727095,9.60875531 L11.5194121,17.0258548 L11.4372972,17.0729064 Z" id="Fill-15-Copy-2" fill="#1AAD19"></path>
        </g>
    </g>
</svg>