<?xml version="1.0" encoding="UTF-8"?>
<svg width="28px" height="28px" viewBox="0 0 28 28" version="1.1" xmlns="http://www.w3.org/2000/svg" xmlns:xlink="http://www.w3.org/1999/xlink">
    <!-- Generator: Sketch 50.2 (55047) - http://www.bohemiancoding.com/sketch -->
    <title>ms</title>
    <desc>Created with Sketch.</desc>
    <defs></defs>
    <g id="====slice===" stroke="none" stroke-width="1" fill="none" fill-rule="evenodd">
        <g id="Artboard-2" transform="translate(-497.000000, -871.000000)">
            <g id="Group-11-Copy-2" transform="translate(497.000000, 871.000000)">
                <rect id="Rectangle-Copy-6" x="0" y="0" width="28" height="28"></rect>
                <g id="Group-11-Copy" transform="translate(4.000000, 3.000000)">
                    <rect id="Rectangle-22" fill="#FA9D3B" x="4" y="0" width="2" height="24"></rect>
                    <rect id="Rectangle-22-Copy" fill="#FA9D3B" x="13" y="0" width="2" height="24"></rect>
                    <path d="M14,1 L14,14.5341353 L17.0361783,13.3444491 C18.7018093,12.6917937 19.6071805,10.8881336 19.1353401,9.162546 L17.2197492,2.15695643 C17.0329443,1.47378424 16.412217,1 15.7039654,1 L14,1 Z" id="Rectangle-22-Copy-2" stroke="#FA9D3B" stroke-width="2"></path>
                    <path d="M2,0 L2,10 C2,10.5522847 2.44771525,11 3,11 L7,11 C7.55228475,11 8,10.5522847 8,10 L8,0 L10,0 L10,10 C10,11.6568542 8.65685425,13 7,13 L3,13 C1.34314575,13 2.02906125e-16,11.6568542 0,10 L0,0 L2,0 Z" id="Combined-Shape" fill="#FA9D3B"></path>
                </g>
            </g>
        </g>
    </g>
</svg>