<?xml version="1.0" encoding="UTF-8"?>
<svg width="28px" height="28px" viewBox="0 0 28 28" version="1.1" xmlns="http://www.w3.org/2000/svg" xmlns:xlink="http://www.w3.org/1999/xlink">
    <!-- Generator: Sketch 50.2 (55047) - http://www.bohemiancoding.com/sketch -->
    <title>qz</title>
    <desc>Created with Sketch.</desc>
    <defs></defs>
    <g id="====slice===" stroke="none" stroke-width="1" fill="none" fill-rule="evenodd">
        <g id="Artboard-2" transform="translate(-601.000000, -923.000000)" stroke="#FA9D3B" stroke-width="2">
            <g id="icon27-copy-2" transform="translate(601.000000, 923.000000)">
                <path d="M9.31450892,6.66666667 C10.5695142,6.66666667 11.593606,5.6256364 11.593606,4.33333333 C11.593606,3.04103027 10.5695142,2 9.31450892,2 C8.05950361,2 7.03541182,3.04103027 7.03541182,4.33333333 C7.03541182,5.6256364 8.05950361,6.66666667 9.31450892,6.66666667 Z M7.70823858,10 C7.64739988,10 7.58660631,10.0033126 7.52612782,10.0099231 C6.60596298,10.1105001 5.94155576,10.9379748 6.04213276,11.8581397 L7.5549522,25.6987129 C7.57369165,25.8701575 7.71849973,26 7.89096542,26 L10.7574576,26 C10.9300707,26 11.0749529,25.8699418 11.0935125,25.6983294 L12.5905156,11.8562383 C12.5969884,11.7963866 12.6002319,11.7362296 12.6002319,11.6760289 C12.6002319,10.7503837 11.8498482,10 10.924203,10 L7.70823858,10 Z M20.4634391,12.6666667 C21.7184444,12.6666667 22.7425362,11.6256364 22.7425362,10.3333333 C22.7425362,9.04103027 21.7184444,8 20.4634391,8 C19.2084338,8 18.184342,9.04103027 18.184342,10.3333333 C18.184342,11.6256364 19.2084338,12.6666667 20.4634391,12.6666667 Z M19.6790283,16 C19.5881884,16 19.4974988,16.0073852 19.4078558,16.0220826 C18.4944064,16.1718471 17.8753175,17.0337521 18.025082,17.9472014 L19.2989248,25.7166745 C19.3257135,25.8800651 19.4669136,26 19.6324857,26 L21.3132312,26 C21.4790191,26 21.6203363,25.8797603 21.6468839,25.7161117 L22.907632,17.9444108 C22.9220269,17.8556749 22.9292594,17.7659248 22.9292594,17.6760289 C22.9292594,16.7503837 22.1788757,16 21.2532305,16 L19.6790283,16 Z" id="Combined-Shape"></path>
            </g>
        </g>
    </g>
</svg>