<?xml version="1.0" encoding="UTF-8"?>
<svg width="28px" height="28px" viewBox="0 0 28 28" version="1.1" xmlns="http://www.w3.org/2000/svg" xmlns:xlink="http://www.w3.org/1999/xlink">
    <!-- Generator: Sketch 50.2 (55047) - http://www.bohemiancoding.com/sketch -->
    <title>xq</title>
    <desc>Created with Sketch.</desc>
    <defs></defs>
    <g id="====slice===" stroke="none" stroke-width="1" fill="none" fill-rule="evenodd">
        <g id="Artboard-2" transform="translate(-696.000000, -871.000000)">
            <g id="Group-28-Copy" transform="translate(696.000000, 871.000000)">
                <g id="Group-17-Copy">
                    <g id="Group-22-Copy"></g>
                    <path d="M4.16666667,3.8125 C4.07461921,3.8125 4,3.88711921 4,3.97916667 L4,23.8333333 C4,23.9253808 4.07461921,24 4.16666667,24 L18.8333333,24 C18.9253808,24 19,23.9253808 19,23.8333333 L19,7.78353965 C19,7.72041098 18.9643329,7.66270046 18.9078689,7.63446846 L11.299123,3.83009547 C11.2759804,3.81852418 11.2504615,3.8125 11.2245874,3.8125 L4.16666667,3.8125 Z" id="Rectangle-32" stroke="#1588F4" stroke-width="2" transform="translate(11.500000, 13.906250) scale(-1, 1) translate(-11.500000, -13.906250) "></path>
                    <rect id="Rectangle-33" fill="#1588F4" x="13" y="9" width="3" height="2"></rect>
                    <rect id="Rectangle-33-Copy" fill="#1588F4" x="10" y="13" width="6" height="2"></rect>
                </g>
                <path d="M25.9509127,24 C25.6726862,21.3691189 24.2079051,20.2190185 21.3088729,20.2854518 L20.7518725,20.2982159 L20.4479044,19.8312943 C19.6476456,18.6020265 18.4435927,18 16.7145346,18 C13.8614078,18 12.151955,20.2468789 12.0002012,23.8669115 C11.999687,23.9195405 11.9999833,23.9622855 11.9999134,23.9957909 C12.0409313,23.9984508 12.0886432,24 12.143106,24 C18.0604692,24 18.0604692,24 23.1037631,24 C24.7042848,24 25.1017941,24 25.9509127,24 Z M11.8464745,23.9746062 C11.8442442,23.9736716 11.8421703,23.9728974 11.840269,23.9722841 C11.8456994,23.9740357 11.8518569,23.9757547 11.8587436,23.9774249 Z" id="Oval-14" stroke="#1588F4" stroke-width="2" fill="#FFFFFF" transform="translate(19.000116, 21.000000) scale(-1, 1) translate(-19.000116, -21.000000) "></path>
            </g>
        </g>
    </g>
</svg>