<?xml version="1.0" encoding="UTF-8"?>
<svg width="28px" height="28px" viewBox="0 0 28 28" version="1.1" xmlns="http://www.w3.org/2000/svg" xmlns:xlink="http://www.w3.org/1999/xlink">
    <!-- Generator: Sketch 50.2 (55047) - http://www.bohemiancoding.com/sketch -->
    <title>xx</title>
    <desc>Created with Sketch.</desc>
    <defs></defs>
    <g id="====slice===" stroke="none" stroke-width="1" fill="none" fill-rule="evenodd">
        <g id="Artboard-2" transform="translate(-393.000000, -923.000000)">
            <g id="Group-32" transform="translate(393.000000, 923.000000)">
                <rect id="Rectangle-11" stroke-opacity="0.1" stroke="#000000" stroke-width="0.666666667" fill="#FFFFFF" opacity="0" x="0.333333333" y="0.333333333" width="27.3333333" height="27.3333333"></rect>
                <path d="M6.25342085,6.33333333 C6.20304562,6.33333333 6.15269629,6.33561723 6.10252794,6.34017799 C5.18583356,6.42351384 4.51026299,7.23419853 4.59359884,8.15089291 L6.10875036,24.8175596 C6.18679265,25.6760248 6.90656703,26.3333333 7.76857237,26.3333333 L16.2314276,26.3333333 C17.093433,26.3333333 17.8132073,25.6760248 17.8912496,24.8175596 L19.4064012,8.15089291 C19.4109619,8.10072456 19.4132458,8.05037523 19.4132458,8 C19.4132458,7.07952542 18.6670537,6.33333333 17.7465791,6.33333333 L6.25342085,6.33333333 Z" id="Rectangle-50" stroke="#1AAD19" stroke-width="2"></path>
                <circle id="Oval-13" stroke="#1AAD19" stroke-width="2" cx="18.6666667" cy="8" r="6.66666667"></circle>
                <path d="M15.7041605,3.11773483 C13.9084302,4.4170944 13.0105651,6.03775692 13.0105651,7.97972241 C13.7578562,7.97972241 14.7026009,8.93545544 16.9340626,8.93545544 C17.6924944,8.93545544 19.0814162,8.93545544 21.1008282,8.93545544 L20.0784953,4.33333333 L15.7041605,3.11773483 Z" id="Path-12" fill="#FFFFFF"></path>
                <path d="M15.8937418,7.84391687 C12.8932887,9.98535112 11.2584532,11.4792796 10.9892353,12.3257023 C10.5020209,13.1468903 10.2326891,14.2070121 10.1812399,15.5060675 L18.3088138,16.3339705 L15.8937418,12.1248502 L15.8937418,7.84391687 Z" id="Path-12-Copy" fill="#FFFFFF" transform="translate(14.245027, 12.088944) rotate(-90.000000) translate(-14.245027, -12.088944) "></path>
                <path d="M17.9119661,3.33333333 L19.5119662,3.33333333 L19.5119662,6 L17.9119661,6 L17.9119661,3.33333333 Z M22.8880339,5.30717965 L23.6880339,6.69282035 L21.3786328,8.02615368 L20.5786328,6.64051298 L22.8880339,5.30717965 Z M13.9119661,6.69282035 L14.7119662,5.30717965 L17.0213673,6.64051298 L16.2213672,8.02615368 L13.9119661,6.69282035 Z" id="Combined-Shape" fill="#1AAD19"></path>
                <rect id="Rectangle-56" fill="#1AAD19" x="4.66666667" y="10" width="14.6666667" height="2"></rect>
            </g>
        </g>
    </g>
</svg>