<?xml version="1.0" encoding="UTF-8"?>
<svg width="28px" height="28px" viewBox="0 0 28 28" version="1.1" xmlns="http://www.w3.org/2000/svg" xmlns:xlink="http://www.w3.org/1999/xlink">
    <!-- Generator: Sketch 50.2 (55047) - http://www.bohemiancoding.com/sketch -->
    <title>yh</title>
    <desc>Created with Sketch.</desc>
    <defs></defs>
    <g id="0923-无关系链" stroke="none" stroke-width="1" fill="none" fill-rule="evenodd">
        <g id="Group-34-Copy-3" stroke="#FF9808" stroke-width="2">
            <g id="icon28-copy-3">
                <g id="Group-2" transform="translate(2.000000, 2.000000)">
                    <path d="M2.39497269,16.8011687 L0.218787702,14.6249837 C-0.0729292341,14.3332668 -0.0729292341,13.8603002 0.218787702,13.5685832 L13.5685832,0.218787702 C13.8603002,-0.0729292341 14.3332668,-0.0729292341 14.6249837,0.218787702 L16.8011687,2.39497269 C16.425804,2.88320799 16.2026352,3.49454008 16.2026352,4.15799604 C16.2026352,5.75692646 17.4988244,7.05311567 19.0977548,7.05311567 C19.7612108,7.05311567 20.3725429,6.82994688 20.8607782,6.45458221 L23.1727139,8.76651789 C23.4644308,9.05823482 23.4644308,9.53120142 23.1727139,9.82291836 L9.82291836,23.1727139 C9.53120142,23.4644308 9.05823482,23.4644308 8.76651789,23.1727139 L6.45458221,20.8607782 C6.82994688,20.3725429 7.05311567,19.7612108 7.05311567,19.0977548 C7.05311567,17.4988244 5.75692646,16.2026352 4.15799604,16.2026352 C3.49454008,16.2026352 2.88320799,16.425804 2.39497269,16.8011687 Z" id="Combined-Shape"></path>
                </g>
            </g>
        </g>
    </g>
</svg>