<?xml version="1.0" encoding="UTF-8"?>
<svg width="28px" height="28px" viewBox="0 0 28 28" version="1.1" xmlns="http://www.w3.org/2000/svg" xmlns:xlink="http://www.w3.org/1999/xlink">
    <!-- Generator: Sketch 50.2 (55047) - http://www.bohemiancoding.com/sketch -->
    <title>yy</title>
    <desc>Created with Sketch.</desc>
    <defs>
        <path d="M17.271893,15.0658618 C17.048426,14.992659 16.9553148,15.0292604 16.75047,15.1390646 C16.080069,15.5050787 14.3839064,16.3918026 13.4155494,16.8859216 C13.1734602,17.0140265 12.9127487,17.0872293 12.6147927,17.0872293 C12.2982145,17.0872293 12.0188807,16.9957258 11.7767915,16.8493202 C10.4173673,16.06239 9.2140655,14.9915098 8.11535281,13.8934677 C7.01664011,12.8137262 6.16856279,11.6644164 5.36780608,10.3284651 C5.21882809,10.090556 5.12571684,9.79774476 5.12571684,9.50493352 C5.12571684,9.23042298 5.20020584,8.95591244 5.33056158,8.7180033 C5.83336231,7.74806606 6.75676504,6.094134 7.12921002,5.4536094 C7.24094352,5.25230167 7.27818802,5.14249746 7.20369902,4.94118973 L5.62080785,0.805230918 C5.41596311,0.329412648 4.95040689,0.0183007027 4.39173941,0 C4.16827243,0 3.90756094,0.0915035135 3.85169419,0.109804216 C2.02671378,0.768629513 0,2.9194167 0,4.93249399 C0,5.49981578 0.148977992,6.03053616 0.167600241,6.15864107 C1.0614682,10.0017886 3.31979898,13.3172846 6.05726959,16.0074879 C8.7947402,18.6976912 12.11353,20.9568599 16.0242023,21.8352937 C16.154558,21.8718951 16.6946033,22 17.271893,22 C19.3203404,22 21.2157803,20.4179572 21.8861813,18.6244883 C21.9048035,18.5695862 22.016537,18.3133764 21.9979148,18.093768 C21.9606703,17.5447469 21.9646997,16.8227293 21.4805213,16.6214215 L17.271893,15.0658618 Z" id="path-1"></path>
    </defs>
    <g id="0923-无关系链" stroke="none" stroke-width="1" fill="none" fill-rule="evenodd">
        <g id="Group-3-Copy-3">
            <rect id="Rectangle-Copy" x="0" y="0" width="28" height="28"></rect>
            <g id="WCO-Copy" transform="translate(2.000000, 2.000000)" stroke="#FF9808">
                <g id="Group-7" transform="translate(1.000000, 1.000000)">
                    <g id="XMLID_46_">
                        <use stroke-width="1.56521739" xlink:href="#path-1"></use>
                        <path stroke-width="1.04347826" d="M17.4343108,14.5700472 L17.4527741,14.5764808 L21.6808227,16.1396633 C22.2379879,16.3713168 22.4254219,16.8532507 22.4894588,17.6179681 C22.4968669,17.7064333 22.5001746,17.7576466 22.5105242,17.9315572 C22.5144425,17.9970238 22.5144425,17.9970238 22.5177881,18.049684 C22.5229611,18.1106874 22.5229308,18.1721493 22.5184625,18.2342824 C22.5089904,18.3659963 22.4807359,18.4944953 22.4391936,18.6257055 C22.4175876,18.6939474 22.3712275,18.8187422 22.3748932,18.8071695 C21.5950734,20.8933577 19.4568577,22.5217391 17.271893,22.5217391 C16.7627952,22.5217391 16.2255556,22.4337453 15.909856,22.3443483 C12.2057714,21.5123193 8.81301857,19.4471621 5.69157099,16.3796118 C2.62484299,13.3658364 0.515640428,9.95809644 -0.348712151,6.23369594 C-0.349138886,6.23076038 -0.404067647,5.97763528 -0.428067782,5.84951071 C-0.487438619,5.53255989 -0.52173913,5.23222873 -0.52173913,4.93249399 C-0.52173913,2.80572735 1.50398126,0.402642278 3.68927635,-0.386010432 C3.7488396,-0.40622698 3.81338199,-0.426649268 3.89155567,-0.447550562 C4.0064091,-0.478258922 4.11962006,-0.501058227 4.23192729,-0.512944016 C4.28610841,-0.518678157 4.33931668,-0.52173913 4.40882126,-0.521459424 C5.16289017,-0.496757805 5.81257348,-0.0687755242 6.10808046,0.618744654 L7.69301418,4.76013063 C7.82235536,5.10967729 7.77717537,5.36127658 7.58024288,5.71587088 C7.12845141,6.49285423 6.23304301,8.11071887 5.78811854,8.96870901 C5.69714692,9.13473913 5.64745597,9.32355984 5.64745597,9.50493352 C5.64745597,9.6889146 5.70691746,9.88694357 5.81531395,10.0602331 C6.64682976,11.4475017 7.47295136,12.5306503 8.48416546,13.5244298 C9.77164609,14.8111247 10.8751504,15.7245376 12.0467846,16.4028726 C12.2243391,16.5102503 12.4117074,16.5654902 12.6147927,16.5654902 C12.8147046,16.5654902 12.9924649,16.5195189 13.1784119,16.4211878 C14.1864835,15.9068038 15.8605807,15.0304775 16.5039786,14.6792237 C16.8515054,14.4929367 17.0762998,14.4527707 17.4343108,14.5700472 Z"></path>
                    </g>
                </g>
            </g>
        </g>
    </g>
</svg>