<?xml version="1.0" encoding="UTF-8"?>
<svg width="32px" height="32px" viewBox="0 0 32 32" version="1.1" xmlns="http://www.w3.org/2000/svg" xmlns:xlink="http://www.w3.org/1999/xlink">
    <!-- Generator: Sketch 50.2 (55047) - http://www.bohemiancoding.com/sketch -->
    <title>ALL</title>
    <desc>Created with Sketch.</desc>
    <defs></defs>
    <g id="=slice=" stroke="none" stroke-width="1" fill="none" fill-rule="evenodd">
        <g id="icon_全部">
            <rect id="Rectangle-path" fill="#000000" fill-rule="nonzero" opacity="0" x="0" y="0" width="32" height="32"></rect>
            <circle id="Oval-2" fill="#FFFFFF" fill-rule="evenodd" cx="10.5" cy="10.5" r="3.5"></circle>
            <path d="M27,6.86930381 C27,5.83544306 26.1737089,5 25.1511737,5 L18.7267606,5.00000003 C17.7042254,5.00000003 16.8779342,5.83544306 16.8779342,6.86930385 L16.8779342,13.3648735 C16.8779342,14.3987342 17.7042253,15.2341773 18.7267606,15.2341773 L25.1511737,15.2341773 C26.1737089,15.2341773 27,14.3987343 27,13.3648735 L27,6.86930381 Z M25.485133,13.3648734 C25.485133,13.5528481 25.3370891,13.7025317 25.1511737,13.7025317 L18.7267606,13.7025317 C18.5408451,13.7025317 18.3928012,13.5528481 18.3928012,13.3648734 L18.3928012,6.86930381 C18.3928012,6.68132914 18.5408451,6.53164558 18.7267606,6.53164558 L25.1511737,6.53164558 C25.3370892,6.53164558 25.485133,6.68132914 25.485133,6.86930381 L25.485133,13.3648734 Z M15.1220657,18.461076 C15.1220657,17.4272152 14.2957746,16.5917722 13.2732394,16.5917722 L6.8488263,16.5917722 C5.8262911,16.5917722 5,17.4272152 5,18.461076 L5,24.9566456 C5,25.9905064 5.82629107,26.8259494 6.8488263,26.8259494 L13.2732394,26.8259494 C14.2957746,26.8259494 15.1220658,25.9905064 15.1220658,24.9566456 L15.1220657,18.461076 Z M13.6071987,24.9566456 C13.6071987,25.1446203 13.4591549,25.2943038 13.2732394,25.2943038 L6.8488263,25.2943038 C6.66291082,25.2943038 6.51486699,25.1446203 6.51486699,24.9566456 L6.51486699,18.461076 C6.51486699,18.2731013 6.66291082,18.1234178 6.8488263,18.1234178 L13.2732394,18.1234178 C13.4591549,18.1234178 13.6071988,18.2731013 13.6071988,18.461076 L13.6071987,24.9566456 Z M21.9389671,16.7658228 C19.1467919,16.7658228 16.8779343,19.0598101 16.8779343,21.8829114 C16.8779343,24.7060127 19.1467919,27 21.9389671,27 C24.7311424,27 27,24.7060127 27,21.8829114 C27,19.0598101 24.7311424,16.7658228 21.9389671,16.7658228 Z M21.9389671,25.4683545 C19.9834116,25.4683545 18.3928012,23.8601266 18.3928012,21.8829114 C18.3928012,19.9056962 19.9834116,18.2974684 21.9389671,18.2974684 C23.8945227,18.2974684 25.485133,19.9056962 25.485133,21.8829114 C25.485133,23.8601266 23.8945227,25.4683545 21.9389671,25.4683545 Z M10.0610328,5.00000003 C7.26885758,5.00000003 5,7.29398736 5,10.1170886 C5,12.9401899 7.26885758,15.2341772 10.0610328,15.2341772 C12.8532081,15.2341772 15.1220657,12.9401899 15.1220657,10.1170886 C15.1220657,7.29398736 12.8532081,5.00000003 10.0610328,5.00000003 Z M10.0610328,13.7025317 C8.10547729,13.7025317 6.51486696,12.0943038 6.51486696,10.1170886 C6.51486696,8.13987344 8.10547729,6.53164558 10.0610328,6.53164558 C12.0165884,6.53164558 13.6071987,8.13987344 13.6071987,10.1170886 C13.6071987,12.0943038 12.0165884,13.7025317 10.0610328,13.7025317 Z" id="Shape" fill="#000000" fill-rule="nonzero"></path>
        </g>
    </g>
</svg>