<?xml version="1.0" encoding="UTF-8"?>
<svg width="28px" height="28px" viewBox="0 0 28 28" version="1.1" xmlns="http://www.w3.org/2000/svg" xmlns:xlink="http://www.w3.org/1999/xlink">
    <!-- Generator: Sketch 50.2 (55047) - http://www.bohemiancoding.com/sketch -->
    <title>QR_icon</title>
    <desc>Created with Sketch.</desc>
    <defs></defs>
    <g id="QR_icon" stroke="none" stroke-width="1" fill="none" fill-rule="evenodd">
        <path d="M5.30000001,5 L12.7,5 C12.8656854,5 13,5.13431458 13,5.30000001 L13,12.7 C13,12.8656854 12.8656854,13 12.7,13 L5.30000001,13 C5.13431458,13 5,12.8656854 5,12.7 L5,5.30000001 C5,5.13431458 5.13431458,5 5.30000001,5 Z M8,8 L8,10 L10,10 L10,8 L8,8 Z" id="Combined-Shape" fill="#FA9D3B"></path>
        <path d="M5.30000001,15 L12.7,15 C12.8656854,15 13,15.1343146 13,15.3 L13,22.7 C13,22.8656854 12.8656854,23 12.7,23 L5.30000001,23 C5.13431458,23 5,22.8656854 5,22.7 L5,15.3 C5,15.1343146 5.13431458,15 5.30000001,15 Z M8,18 L8,20 L10,20 L10,18 L8,18 Z" id="Combined-Shape-Copy-2" fill="#FA9D3B"></path>
        <path d="M15.3,5 L22.7,5 C22.8656854,5 23,5.13431458 23,5.30000001 L23,12.7 C23,12.8656854 22.8656854,13 22.7,13 L15.3,13 C15.1343146,13 15,12.8656854 15,12.7 L15,5.30000001 C15,5.13431458 15.1343146,5 15.3,5 Z M18,8 L18,10 L20,10 L20,8 L18,8 Z" id="Combined-Shape-Copy" fill="#FA9D3B"></path>
        <path d="M17,17 L17,22.8 C17,22.9104569 16.9104569,23 16.8,23 L15.2,23 C15.0895431,23 15,22.9104569 15,22.8 L15,16.8 L15,15.2 C15,15.0895431 15.0895431,15 15.2,15 L19.8,15 C19.9104569,15 20,15.0895431 20,15.2 L20,16.8 L20,18 L21,18 L21,15.2 C21,15.0895431 21.0895431,15 21.2,15 L22.8,15 C22.9104569,15 23,15.0895431 23,15.2 L23,19.8 C23,19.9104569 22.9104569,20 22.8,20 L21.2,20 L19.8,20 L18.2,20 C18.0895431,20 18,19.9104569 18,19.8 L18,17 L17,17 Z" id="Combined-Shape" fill="#FA9D3B"></path>
        <rect id="Rectangle-15-Copy" fill="#FA9D3B" transform="translate(19.000000, 22.000000) rotate(-90.000000) translate(-19.000000, -22.000000) " x="18" y="21" width="2" height="2" rx="0.100000001"></rect>
        <rect id="Rectangle-15-Copy-6" fill="#FA9D3B" transform="translate(22.000000, 22.000000) rotate(-90.000000) translate(-22.000000, -22.000000) " x="21" y="21" width="2" height="2" rx="0.100000001"></rect>
    </g>
</svg>