<?xml version="1.0" encoding="UTF-8"?>
<svg width="16px" height="16px" viewBox="0 0 16 16" version="1.1" xmlns="http://www.w3.org/2000/svg" xmlns:xlink="http://www.w3.org/1999/xlink">
    <!-- Generator: Sketch 50.2 (55047) - http://www.bohemiancoding.com/sketch -->
    <title>change_icon</title>
    <desc>Created with Sketch.</desc>
    <defs></defs>
    <g id="change_icon" stroke="none" stroke-width="1" fill="none" fill-rule="evenodd">
        <g id="Group-15-Copy" transform="translate(8.000000, 8.000000) rotate(-90.000000) translate(-8.000000, -8.000000) ">
            <rect id="Rectangle" fill="#D8D8D8" opacity="0" x="0" y="0" width="16" height="16"></rect>
            <path d="M11.5039758,10.2832763 L3.2,10.2832763 C3.08954305,10.2832763 3,10.1937333 3,10.0832763 L3,9.48327632 C3,9.37281937 3.08954305,9.28327632 3.2,9.28327632 L12.8,9.28327632 C12.9104569,9.28327632 13,9.37281937 13,9.48327632 L13,10.0832763 C13,10.1403043 12.9761316,10.1917576 12.9378398,10.2281913 C12.9288129,10.2597944 12.9118553,10.2896103 12.8869669,10.3144987 L9.63427576,13.5671899 C9.5561709,13.6452947 9.4295379,13.6452947 9.35143304,13.5671899 L8.92716898,13.1429258 C8.84906412,13.064821 8.84906412,12.938188 8.92716898,12.8600831 L11.5039758,10.2832763 Z M4.53634806,5.28327632 L12.8,5.28327632 C12.9104569,5.28327632 13,5.37281937 13,5.48327632 L13,6.08327632 C13,6.19373327 12.9104569,6.28327632 12.8,6.28327632 L3.2,6.28327632 C3.08954305,6.28327632 3,6.19373327 3,6.08327632 L3,5.48327632 C3,5.41418074 3.03503857,5.35326885 3.08831683,5.31733954 C3.0902074,5.31528581 3.09214879,5.31326203 3.09414099,5.31126983 L6.34683218,2.05857864 C6.42493704,1.98047379 6.55157003,1.98047379 6.62967489,2.05857864 L7.05393896,2.48284271 C7.13204382,2.56094757 7.13204382,2.68758057 7.05393896,2.76568543 L4.53634806,5.28327632 Z" id="Combined-Shape" fill="#000000" transform="translate(8.000000, 7.812884) rotate(-90.000000) translate(-8.000000, -7.812884) "></path>
        </g>
    </g>
</svg>