<?xml version="1.0" encoding="UTF-8"?>
<svg width="32px" height="32px" viewBox="0 0 32 32" version="1.1" xmlns="http://www.w3.org/2000/svg" xmlns:xlink="http://www.w3.org/1999/xlink">
    <!-- Generator: Sketch 50.2 (55047) - http://www.bohemiancoding.com/sketch -->
    <title>CX</title>
    <desc>Created with Sketch.</desc>
    <defs></defs>
    <g id="=slice=" stroke="none" stroke-width="1" fill="none" fill-rule="evenodd">
        <g id="icon_出行">
            <rect id="Rectangle-path" fill="#000000" fill-rule="nonzero" opacity="0" x="0" y="0" width="32" height="32"></rect>
            <g id="Group-2" stroke-width="1" fill-rule="evenodd" transform="translate(3.000000, 4.000000)">
                <path d="M12.9778544,10.6174497 L16.5911623,10.6174497 L16.5911623,14.8791946 L12.9778544,14.8791946 L12.9778544,10.6174497 Z M9.36454652,10.6174497 L12.9778544,10.6174497 L12.9778544,14.8791946 L9.36454652,14.8791946 L9.36454652,10.6174497 Z" id="Shape" fill="#FFFFFF" fill-rule="nonzero"></path>
                <path d="M15.1499374,23.3087248 L10.8057714,23.3087248 C10.4285361,23.3087248 10.1227264,23.0082448 10.1227264,22.6375839 C10.1227264,22.266923 10.4285361,21.9664429 10.8057714,21.9664429 L15.1499374,21.9664429 C15.5271727,21.9664429 15.8329824,22.266923 15.8329824,22.6375839 C15.8329824,23.0082448 15.5271727,23.3087248 15.1499374,23.3087248 Z M21.9735566,21.6375839 C21.7023609,21.6367292 21.4573673,21.4783093 21.3492881,21.2339138 C21.2412088,20.9895184 21.2905184,20.7054454 21.4749338,20.5100671 C25.7727748,15.9760429 25.6022707,8.90040212 21.0908525,4.57132291 C16.5794343,0.242243695 9.37627456,0.242243695 4.86485633,4.57132291 C0.353438105,8.90040212 0.182933987,15.9760429 4.480775,20.5100671 C4.74560765,20.7718372 4.74560765,21.1946057 4.480775,21.4563758 C4.35252197,21.5834313 4.1779385,21.6548982 3.99581307,21.6548982 C3.81368763,21.6548982 3.63910416,21.5834313 3.51085113,21.4563758 C-1.2888952,16.3877875 -1.09570594,8.48206968 3.94608521,3.64566599 C8.98787637,-1.19073769 17.0361369,-1.19073769 22.0779281,3.64566599 C27.1197192,8.48206968 27.3129085,16.3877875 22.5131622,21.4563758 C22.3687853,21.5911925 22.1717108,21.6573732 21.9735566,21.6375839 Z" id="Shape" fill="#000000" fill-rule="nonzero"></path>
                <path d="M18.0392176,6.92617451 L15.7100343,6.92617451 C15.3980619,5.67774408 14.2588463,4.79997844 12.9505326,4.79997844 C11.6422189,4.79997844 10.5030033,5.67774408 10.1910309,6.92617451 L7.91649119,6.92617451 C6.739517,6.92617451 5.7853909,7.8636722 5.78539088,9.02013422 L5.78539088,18.7919463 C5.78539088,19.9484083 6.73951699,20.885906 7.91649119,20.885906 L8.19653962,20.885906 L6.96022822,22.9932886 C6.77485782,23.31408 6.88773229,23.7217393 7.21295487,23.9060403 C7.31639029,23.9663601 7.43420255,23.9987727 7.55447735,24 C7.79703417,23.9985614 8.02061981,23.8708353 8.14189602,23.6644295 L9.7743735,20.885906 L16.222318,20.885906 L17.8547955,23.6644295 C17.9760717,23.8708353 18.1996573,23.9985614 18.4422141,24 C18.5624889,23.9987727 18.6803012,23.9663601 18.7837366,23.9060403 C19.1089592,23.7217393 19.2218337,23.31408 19.0364633,22.9932886 L17.7591692,20.885906 L18.0187263,20.885906 C18.5874712,20.8912797 19.1348041,20.6730412 19.5389058,20.2797637 C19.9430075,19.8864861 20.1703442,19.3508051 20.1703179,18.7919463 L20.1703179,9.02013422 C20.1703179,7.8636722 19.2161918,6.92617451 18.0392176,6.92617451 Z M12.9778544,6.1409396 C13.5325756,6.13836017 14.0418873,6.441733 14.2961312,6.92617451 L11.6595776,6.92617451 C11.9138215,6.441733 12.4231332,6.13836018 12.9778544,6.1409396 Z M18.804228,18.7919463 C18.804228,18.9913037 18.7236289,19.1824959 18.5801616,19.3234628 C18.4366944,19.4644298 18.242111,19.5436242 18.0392176,19.5436242 L7.91649119,19.5436242 C7.71359782,19.5436242 7.51901444,19.4644298 7.37554717,19.3234628 C7.2320799,19.1824959 7.15148082,18.9913037 7.15148083,18.7919463 L7.15148083,9.02013422 C7.15148083,8.60499401 7.49398763,8.26845637 7.91649119,8.26845637 L18.0392176,8.26845637 C18.242111,8.26845637 18.4366944,8.34765078 18.5801616,8.48861772 C18.7236289,8.62958466 18.804228,8.82077686 18.804228,9.02013422 L18.804228,18.7919463 Z" id="Shape" fill="#000000" fill-rule="nonzero"></path>
                <path d="M16.5911623,11.2885906 C16.9683478,11.2885213 17.2740796,10.9880616 17.2740796,10.6174497 C17.2740796,10.2468377 16.9683478,9.94637798 16.5911623,9.94630873 L9.36454652,9.94630873 C8.98736105,9.94637798 8.68162919,10.2468377 8.68162919,10.6174497 C8.68162919,10.9880616 8.98736105,11.2885213 9.36454652,11.2885906 L12.2948094,11.2885906 L12.2948094,14.2147651 L9.36454652,14.2147651 C8.98731119,14.2147651 8.68150154,14.5152451 8.68150154,14.885906 C8.68150154,15.2565669 8.98731119,15.557047 9.36454652,15.557047 L16.5911623,15.557047 C16.9683976,15.557047 17.2742073,15.2565669 17.2742073,14.885906 C17.2742073,14.5152451 16.9683976,14.2147651 16.5911623,14.2147651 L13.6608994,14.2147651 L13.6608994,11.2885906 L16.5911623,11.2885906 Z" id="Shape" fill="#000000" fill-rule="nonzero"></path>
                <path d="M15.9081173,17.5503356 C15.9080717,17.790141 16.0382494,18.0117495 16.2496029,18.1316652 C16.4609565,18.2515809 16.721368,18.2515809 16.9327216,18.1316652 C17.1440752,18.0117495 17.2742529,17.790141 17.2742072,17.5503356 C17.2742529,17.3105301 17.1440752,17.0889216 16.9327216,16.969006 C16.721368,16.8490903 16.4609565,16.8490903 16.2496029,16.969006 C16.0382494,17.0889216 15.9080717,17.3105301 15.9081173,17.5503356 Z" id="Shape" fill="#000000" fill-rule="nonzero"></path>
                <path d="M8.68150154,17.5503356 C8.68150154,17.9209965 8.98731119,18.2214765 9.36454652,18.2214765 C9.74178184,18.2214765 10.0475915,17.9209965 10.0475915,17.5503356 C10.0475915,17.1796747 9.74178184,16.8791946 9.36454652,16.8791946 C8.98731119,16.8791946 8.68150154,17.1796747 8.68150154,17.5503356 Z" id="Shape" fill="#000000" fill-rule="nonzero"></path>
            </g>
        </g>
    </g>
</svg>