<?xml version="1.0" encoding="UTF-8"?>
<svg width="32px" height="32px" viewBox="0 0 32 32" version="1.1" xmlns="http://www.w3.org/2000/svg" xmlns:xlink="http://www.w3.org/1999/xlink">
    <!-- Generator: Sketch 50.2 (55047) - http://www.bohemiancoding.com/sketch -->
    <title>GW</title>
    <desc>Created with Sketch.</desc>
    <defs></defs>
    <g id="=slice=" stroke="none" stroke-width="1" fill="none" fill-rule="evenodd">
        <g id="icon_购物">
            <rect id="Rectangle-path" fill="#000000" fill-rule="nonzero" opacity="0" x="0" y="0" width="32" height="32"></rect>
            <path d="M17.6220732,21.854398 C17.4855281,21.854398 17.3489829,21.8125035 17.2341609,21.7227295 C16.9672772,21.5162493 16.9207277,21.1391985 17.1348553,20.8818464 C18.6089222,19.1013288 20.8060576,18.0509731 23.1676678,18.0001011 C23.5090307,17.9941162 23.7945341,18.2544608 23.8007407,18.5866246 C23.8069473,18.9157959 23.5369604,19.1911028 23.1924942,19.1970878 C21.2001765,19.2389823 19.3475072,20.1247524 18.1030845,21.6269706 C17.9851591,21.7795864 17.8051678,21.854398 17.6220732,21.854398 Z" id="Shape" fill="#FFFFFF" fill-rule="nonzero" transform="translate(20.400423, 19.927199) scale(1, -1) rotate(-300.000000) translate(-20.400423, -19.927199) "></path>
            <path d="M23.0001554,16.6270141 C23.0050982,16.8461607 23.1309214,17.046114 23.3302201,17.1515394 C23.5295187,17.2569648 23.7720078,17.2518422 23.9663273,17.1381016 C24.1606467,17.024361 24.2772683,16.8192862 24.2722535,16.600141 C24.2673108,16.3809943 24.1414876,16.1810411 23.9421889,16.0756157 C23.7428903,15.9701903 23.5004011,15.9753129 23.3060817,16.0890535 C23.1117622,16.202794 22.9951407,16.4078689 23.0001554,16.6270141 Z" id="Shape" fill="#FFFFFF" fill-rule="nonzero"></path>
            <g id="Group-4" stroke-width="1" fill-rule="evenodd" transform="translate(4.000000, 3.000000)">
                <path d="M18.2926244,25.2352775 L5.96603493,25.1513402 C5.55398243,25.1475249 5.21967568,24.8155911 5.22356297,24.411166 L5.33240703,9.2795633 C5.33629432,8.87513821 5.67448835,8.54701975 6.08654085,8.55083508 L19.1633768,8.64240302 C19.5754293,8.64621835 19.9097361,8.97815215 19.9058488,9.38257723 L19.8047793,23.777821 C19.7970047,24.5866712 19.1206167,25.2390928 18.2926244,25.2352775 Z" id="Shape" fill="#FFFFFF" fill-rule="nonzero"></path>
                <path d="M21.0316014,25.2352941 L21.0169576,25.2352941 L2.80736556,25.1073119 C1.63952079,25.0999986 0.694994306,24.1456166 0.705977172,22.9791497 L0.848754432,2.86765213 C0.852415387,2.30087356 1.07573367,1.77431799 1.47843876,1.37574467 C1.88114385,0.980827988 2.43028716,0.75411656 2.97943046,0.765086468 L21.1890225,0.893068726 C21.7528096,0.896725362 22.2836482,1.11978015 22.6826923,1.52201011 C23.0817365,1.92424006 23.2977328,2.4581089 23.2940719,3.02123084 L23.1512946,23.1327285 C23.1476336,23.699507 22.9243154,24.2260626 22.5216103,24.6246359 C22.1189052,25.0195526 21.5917276,25.2352941 21.0316014,25.2352941 Z M2.96112569,2.18020457 C2.57306442,2.18020457 2.25822225,2.49467526 2.2545613,2.87862204 L2.11178404,22.9901197 C2.11178404,23.1766081 2.18134219,23.3557832 2.31679754,23.4910788 C2.45225289,23.6263743 2.62797875,23.699507 2.81468747,23.699507 L21.0242795,23.8274893 C21.394036,23.8274893 21.7345049,23.5166752 21.7345049,23.1290718 L21.8772821,3.0175742 C21.8772821,2.83108577 21.807724,2.65191061 21.6722686,2.51661508 C21.5404742,2.38131955 21.3647484,2.30818683 21.1743787,2.30818683 L2.96478664,2.18020457 L2.96112569,2.18020457 Z" id="Shape" fill="#000000" fill-rule="nonzero"></path>
                <path d="M14.0285321,14.1122995 L14.0023923,14.1122995 L11.0597985,14.0888415 C10.0963605,14.0810222 9.19640477,13.6822364 8.52050442,12.9667679 C7.84460408,12.2512993 7.47864698,11.3012509 7.48238124,10.2925575 L7.51225529,5.96064961 C7.51598954,5.5462252 7.83713556,5.21390374 8.2329667,5.21390374 L8.23670096,5.21390374 C8.63626636,5.21781341 8.95367812,5.55795419 8.94994387,5.9723786 L8.92006982,10.3042865 C8.91633556,10.9063748 9.13665667,11.4771858 9.53995632,11.9072489 C9.94699023,12.3373119 10.4847231,12.5758014 11.0635328,12.5797111 L14.0061266,12.6031691 L14.0210636,12.6031691 C15.2048228,12.6031691 16.1719951,11.5983854 16.1794636,10.3590218 L16.2093376,6.0271139 C16.2130719,5.61268949 16.5118124,5.25691005 16.9337833,5.28036803 C17.3333487,5.2842777 17.6507605,5.62441848 17.6470262,6.03884289 L17.6171522,10.3707508 C17.6134179,12.4389632 16.0002193,14.1122995 14.0285321,14.1122995 Z" id="Shape" fill="#000000" fill-rule="nonzero"></path>
            </g>
        </g>
    </g>
</svg>