<?xml version="1.0" encoding="UTF-8"?>
<svg width="28px" height="28px" viewBox="0 0 28 28" version="1.1" xmlns="http://www.w3.org/2000/svg" xmlns:xlink="http://www.w3.org/1999/xlink">
    <!-- Generator: Sketch 50.2 (55047) - http://www.bohemiancoding.com/sketch -->
    <title>Artboard 2</title>
    <desc>Created with Sketch.</desc>
    <defs></defs>
    <g id="Artboard-2" stroke="none" stroke-width="1" fill="none" fill-rule="evenodd">
        <path d="M14.8680281,24.6919299 C14.2210498,25.083679 13.4113368,25.0890332 12.7592344,24.7058744 L4.99858678,20.1459145 C4.36021416,19.770823 3.97249838,19.0817603 3.9832518,18.3414242 L4.11954485,8.95811712 C4.12977779,8.25361432 4.4996611,7.60329895 5.09994959,7.23440516 L13.1048006,2.3152041 C13.7548108,1.915755 14.5724506,1.90862412 15.2293288,2.29667546 L23.0055508,6.89048525 C23.6415433,7.26619839 24.0274328,7.95391099 24.0167046,8.69251224 L23.8799875,18.1050135 C23.8696847,18.8143262 23.4948454,19.4683425 22.8880295,19.835773 L14.8680281,24.6919299 Z M13.0574669,18 L14.9634311,18 L18.1299856,10.3793133 L16.2360844,10.3793133 L14.0707643,16.0194532 L11.8330658,10.3793133 L9.89694394,10.3793133 L13.0574669,18 Z" id="Combined-Shape" fill="#09BB07"></path>
    </g>
</svg>