<?xml version="1.0" encoding="UTF-8"?>
<svg width="32px" height="32px" viewBox="0 0 32 32" version="1.1" xmlns="http://www.w3.org/2000/svg" xmlns:xlink="http://www.w3.org/1999/xlink">
    <!-- Generator: Sketch 50.2 (55047) - http://www.bohemiancoding.com/sketch -->
    <title>JD</title>
    <desc>Created with Sketch.</desc>
    <defs></defs>
    <g id="=slice=" stroke="none" stroke-width="1" fill="none" fill-rule="evenodd">
        <g id="icon_酒店">
            <rect id="Rectangle-path" fill="#000000" fill-rule="nonzero" opacity="0" x="0" y="0" width="32" height="32"></rect>
            <path d="M17.6220732,21.854398 C17.4855281,21.854398 17.3489829,21.8125035 17.2341609,21.7227295 C16.9672772,21.5162493 16.9207277,21.1391985 17.1348553,20.8818464 C18.6089222,19.1013288 20.8060576,18.0509731 23.1676678,18.0001011 C23.5090307,17.9941162 23.7945341,18.2544608 23.8007407,18.5866246 C23.8069473,18.9157959 23.5369604,19.1911028 23.1924942,19.1970878 C21.2001765,19.2389823 19.3475072,20.1247524 18.1030845,21.6269706 C17.9851591,21.7795864 17.8051678,21.854398 17.6220732,21.854398 Z" id="Shape" fill="#FFFFFF" fill-rule="nonzero" transform="translate(20.400423, 19.927199) scale(1, -1) rotate(-300.000000) translate(-20.400423, -19.927199) "></path>
            <path d="M23.0001554,16.6270141 C23.0050982,16.8461607 23.1309214,17.046114 23.3302201,17.1515394 C23.5295187,17.2569648 23.7720078,17.2518422 23.9663273,17.1381016 C24.1606467,17.024361 24.2772683,16.8192862 24.2722535,16.600141 C24.2673108,16.3809943 24.1414876,16.1810411 23.9421889,16.0756157 C23.7428903,15.9701903 23.5004011,15.9753129 23.3060817,16.0890535 C23.1117622,16.202794 22.9951407,16.4078689 23.0001554,16.6270141 Z" id="Shape" fill="#FFFFFF" fill-rule="nonzero"></path>
            <g id="酒店" stroke-width="1" fill-rule="evenodd" transform="translate(4.000000, 5.000000)" fill="#000000">
                <rect id="Rectangle-path" fill-rule="nonzero" opacity="0" x="0" y="0" width="22.0499569" height="22.0499569"></rect>
                <path d="M24.2549526,20.5799598 L22.0499569,20.5799598 L22.0499569,16.8314671 C23.8984513,16.4541448 25.160963,14.7384126 24.9713416,12.8613545 C24.7817202,10.9842964 23.20157,9.55573139 21.3149584,9.55573139 C19.4283467,9.55573139 17.8481965,10.9842964 17.6585751,12.8613545 C17.4689538,14.7384126 18.7314654,16.4541448 20.5799598,16.8314671 L20.5799598,20.5799598 L16.1699684,20.5799598 L16.1699684,4.40999139 L16.904967,4.40999139 C17.3108955,4.40999139 17.6399655,4.08092132 17.6399655,3.67499283 L17.6399655,0.734998557 C17.6399655,0.329070063 17.3108955,2.48559516e-17 16.904967,0 L0.734998557,0 C0.329070063,-2.48559516e-17 4.97119137e-17,0.329070063 9.92616735e-24,0.734998557 L9.92616735e-24,3.67499283 C4.97119137e-17,4.08092132 0.329070063,4.40999139 0.734998557,4.40999139 L1.46999714,4.40999139 L1.46999714,9.98816171 C1.46999714,10.3940902 1.7990672,10.7231603 2.20499569,10.7231603 C2.61092419,10.7231603 2.93999425,10.3940902 2.93999425,9.98816171 L2.93999425,4.40999139 L14.6999713,4.40999139 L14.6999713,20.5799598 L11.759977,20.5799598 L11.759977,16.1699684 C11.759977,15.7640399 11.430907,15.4349699 11.0249785,15.4349699 L6.61498708,15.4349699 C6.20905859,15.4349699 5.87998852,15.7640399 5.87998852,16.1699684 L5.87998852,20.5799598 L2.93999425,20.5799598 L2.93999425,8.81998277 C2.93999425,8.41405428 2.61092419,8.08498422 2.20499569,8.08498422 C1.7990672,8.08498422 1.46999714,8.41405428 1.46999714,8.81998277 L1.46999714,20.5799598 L0.734998557,20.5799598 C0.329070057,20.5799598 -1.07665805e-08,20.9090299 -1.07665806e-08,21.3149584 C-1.07665806e-08,21.7208869 0.329070057,22.0499569 0.734998557,22.0499569 L24.2549526,22.0499569 C24.6608811,22.0499569 24.9899512,21.7208869 24.9899512,21.3149584 C24.9899512,20.9090299 24.6608811,20.5799598 24.2549526,20.5799598 Z M19.1099627,13.2299742 C19.1099627,12.3381367 19.6471926,11.5341152 20.4711431,11.1928238 C21.2950935,10.8515323 22.2435014,11.0401824 22.8741258,11.6708068 C23.5047501,12.3014311 23.6934002,13.2498391 23.3521088,14.0737895 C23.0108173,14.8977399 22.2067959,15.4349699 21.3149584,15.4349699 C20.0971729,15.4349699 19.1099627,14.4477597 19.1099627,13.2299742 Z M2.20499569,2.93999425 L1.46999714,2.93999425 L1.46999714,1.46999714 L16.1699684,1.46999714 L16.1699684,2.93999425 L2.20499569,2.93999425 Z M7.34998564,20.5799598 L7.34998564,16.904967 L10.2899799,16.904967 L10.2899799,20.5799598 L7.34998564,20.5799598 Z" id="Shape" fill-rule="nonzero"></path>
                <path d="M5.51248923,8.08498422 L6.98248637,8.08498422 C7.38841487,8.08498422 7.71748494,7.75591415 7.71748494,7.34998565 C7.71748494,6.94405715 7.38841487,6.61498708 6.98248637,6.61498708 L5.51248923,6.61498708 C5.10656073,6.61498708 4.77749067,6.94405715 4.77749067,7.34998565 C4.77749067,7.75591415 5.10656073,8.08498422 5.51248923,8.08498422 Z M10.6574792,8.08498422 L12.1274763,8.08498422 C12.5334048,8.08498422 12.8624749,7.75591415 12.8624749,7.34998565 C12.8624749,6.94405715 12.5334048,6.61498708 12.1274763,6.61498708 L10.6574792,6.61498708 C10.2515507,6.61498708 9.92248061,6.94405715 9.92248061,7.34998565 C9.92248061,7.75591415 10.2515507,8.08498422 10.6574792,8.08498422 Z M5.51248923,12.4949756 L6.98248637,12.4949756 C7.38841487,12.4949756 7.71748494,12.1659055 7.71748494,11.759977 C7.71748494,11.3540485 7.38841487,11.0249785 6.98248637,11.0249785 L5.51248923,11.0249785 C5.10656073,11.0249785 4.77749067,11.3540485 4.77749067,11.759977 C4.77749067,12.1659055 5.10656073,12.4949756 5.51248923,12.4949756 Z M10.6574792,12.4949756 L12.1274763,12.4949756 C12.5334048,12.4949756 12.8624749,12.1659055 12.8624749,11.759977 C12.8624749,11.3540485 12.5334048,11.0249785 12.1274763,11.0249785 L10.6574792,11.0249785 C10.2515507,11.0249785 9.92248061,11.3540485 9.92248061,11.759977 C9.92248061,12.1659055 10.2515507,12.4949756 10.6574792,12.4949756 Z" id="Shape" fill-rule="nonzero"></path>
            </g>
        </g>
    </g>
</svg>