<?xml version="1.0" encoding="UTF-8"?>
<svg width="32px" height="32px" viewBox="0 0 32 32" version="1.1" xmlns="http://www.w3.org/2000/svg" xmlns:xlink="http://www.w3.org/1999/xlink">
    <!-- Generator: Sketch 50.2 (55047) - http://www.bohemiancoding.com/sketch -->
    <title>JY</title>
    <desc>Created with Sketch.</desc>
    <defs></defs>
    <g id="Page-1" stroke="none" stroke-width="1" fill="none" fill-rule="evenodd">
        <g id="首页" transform="translate(-172.000000, -104.000000)">
            <g id="icon_娱乐" transform="translate(172.000000, 104.000000)">
                <rect id="Rectangle-path" fill="#000000" fill-rule="nonzero" opacity="0" x="0" y="0" width="32" height="32"></rect>
                <path d="M17.6220732,21.854398 C17.4855281,21.854398 17.3489829,21.8125035 17.2341609,21.7227295 C16.9672772,21.5162493 16.9207277,21.1391985 17.1348553,20.8818464 C18.6089222,19.1013288 20.8060576,18.0509731 23.1676678,18.0001011 C23.5090307,17.9941162 23.7945341,18.2544608 23.8007407,18.5866246 C23.8069473,18.9157959 23.5369604,19.1911028 23.1924942,19.1970878 C21.2001765,19.2389823 19.3475072,20.1247524 18.1030845,21.6269706 C17.9851591,21.7795864 17.8051678,21.854398 17.6220732,21.854398 Z" id="Shape" fill="#FFFFFF" fill-rule="nonzero" transform="translate(20.400423, 19.927199) scale(1, -1) rotate(-300.000000) translate(-20.400423, -19.927199) "></path>
                <path d="M23.0001554,16.6270141 C23.0050982,16.8461607 23.1309214,17.046114 23.3302201,17.1515394 C23.5295187,17.2569648 23.7720078,17.2518422 23.9663273,17.1381016 C24.1606467,17.024361 24.2772683,16.8192862 24.2722535,16.600141 C24.2673108,16.3809943 24.1414876,16.1810411 23.9421889,16.0756157 C23.7428903,15.9701903 23.5004011,15.9753129 23.3060817,16.0890535 C23.1117622,16.202794 22.9951407,16.4078689 23.0001554,16.6270141 Z" id="Shape" fill="#FFFFFF" fill-rule="nonzero"></path>
                <g id="Group-3" stroke-width="1" fill-rule="evenodd" transform="translate(5.000000, 4.000000)">
                    <circle id="Oval" cx="8.18181818" cy="7.90909091" r="5.09090909"></circle>
                    <path d="M22.0176885,17.4435455 L13.8247683,7.34645011 C13.8357108,7.19303841 13.8483475,7.04078623 13.8483475,6.88400649 C13.8483475,3.23853942 10.8647157,0.272727273 7.19703988,0.272727273 C3.52911412,0.272727273 0.545454545,3.23856702 0.545454545,6.88400649 C0.545454545,10.5297496 3.52911409,13.4955618 7.19703988,13.4955618 C7.35395619,13.4955618 7.50795636,13.482973 7.66201206,13.4727032 L17.8188579,21.6169675 C17.9553334,21.7256836 18.1197206,21.7794895 18.2834968,21.7794895 C18.473796,21.7794895 18.6635398,21.7074078 18.806903,21.5642935 L19.3861047,20.9885786 C19.3872156,21.2105659 19.3584707,21.4452524 19.273236,21.6753009 C19.0826591,22.1869953 18.6338784,22.5944736 17.9394752,22.8840426 C17.1218995,23.2263133 15.8500719,22.6334269 14.3774749,21.9477537 C11.6659332,20.6840742 7.95304326,18.9532856 3.97939452,22.0484914 C3.65750778,22.2991623 3.60137895,22.7627654 3.85325046,23.0820671 C4.10542747,23.401424 4.57070517,23.4575213 4.89253636,23.206878 C8.14909143,20.6691665 11.1240581,22.0564698 13.7492819,23.2801192 C15.0361901,23.8799625 16.269469,24.4545455 17.4059875,24.4545455 C17.7865859,24.4545455 18.1568251,24.3904422 18.5140944,24.240509 C19.6005385,23.7860713 20.3231312,23.0946834 20.6614039,22.1846763 C21.0152016,21.2345839 20.8398996,20.2891571 20.6625981,19.7190741 L21.964948,18.4244473 C22.2323722,18.1589238 22.2554236,17.7353784 22.0176885,17.4435455 Z M2.02574471,6.88400649 C2.02574471,4.04982417 4.34552328,1.74420409 7.19703985,1.74420409 C10.0482787,1.74420409 12.3680573,4.04982417 12.3680573,6.88400649 C12.3680573,9.71818881 10.0482787,12.0246647 7.19703985,12.0246647 C4.34552328,12.0246647 2.02574471,9.71818881 2.02574471,6.88400649 Z M18.2305618,20.056762 L9.52001229,13.0720715 C11.3193008,12.4012508 12.7474337,10.9818959 13.421424,9.19390566 L20.4481087,17.8521557 L19.3993523,18.8948969 C19.3035084,18.9555769 19.2251891,19.0334008 19.1678938,19.1250006 L18.2305618,20.056762 Z M13.7726388,12.4699368 C13.4833018,12.1826315 13.0149135,12.1826315 12.725882,12.4699368 C12.4368783,12.7572145 12.4368783,13.2231366 12.725882,13.5104419 L14.3297056,15.1049628 C14.4742352,15.2480495 14.6636457,15.3201864 14.853084,15.3201864 C15.0422723,15.3201864 15.231655,15.2480495 15.3761846,15.1049628 C15.6655216,14.8176575 15.6655216,14.3517906 15.3761846,14.0644853 L13.7726388,12.4699368 Z" id="Shape" fill="#444D68" fill-rule="nonzero"></path>
                </g>
            </g>
        </g>
    </g>
</svg>