<?xml version="1.0" encoding="UTF-8"?>
<svg width="32px" height="32px" viewBox="0 0 32 32" version="1.1" xmlns="http://www.w3.org/2000/svg" xmlns:xlink="http://www.w3.org/1999/xlink">
    <!-- Generator: Sketch 50.2 (55047) - http://www.bohemiancoding.com/sketch -->
    <title>KD</title>
    <desc>Created with Sketch.</desc>
    <defs></defs>
    <g id="=slice=" stroke="none" stroke-width="1" fill="none" fill-rule="evenodd">
        <g id="icon_休闲-copy">
            <rect id="Rectangle-path" fill="#000000" fill-rule="nonzero" opacity="0" x="0" y="0" width="32" height="32"></rect>
            <g id="外卖" stroke-width="1" fill-rule="evenodd" transform="translate(2.000000, 2.000000)">
                <rect id="Rectangle-path" fill="#000000" fill-rule="nonzero" opacity="0" x="0" y="0" width="28" height="28"></rect>
                <path d="M25.6539062,8.90039062 C25.6539062,9.8765625 24.8636719,10.6667969 23.8875,10.6667969 L18.9601562,10.6667969 C17.9839844,10.6667969 17.19375,9.8765625 17.19375,8.90039062 L17.19375,6.16054687 C17.19375,5.184375 17.9839844,4.39414062 18.9601562,4.39414062 L23.8847656,4.39414062 C24.8609375,4.39414062 25.6511719,5.184375 25.6511719,6.16054687 L25.6511719,8.90039062 L25.6539062,8.90039062 Z" id="Shape" fill="#FFFFFF" fill-rule="nonzero"></path>
                <path d="M1.56953125,20.2726563 C1.56953122,21.6403136 2.29916772,22.9040811 3.48359373,23.5879098 C4.66801974,24.2717385 6.12729276,24.2717385 7.31171877,23.5879098 C8.49614478,22.9040811 9.22578128,21.6403136 9.22578125,20.2726563 C9.22578125,18.1584412 7.51187131,16.4445313 5.39765625,16.4445313 C3.28344119,16.4445313 1.56953125,18.1584412 1.56953125,20.2726563 Z" id="Shape" fill="#FFFFFF" fill-rule="nonzero"></path>
                <path d="M18.7742187,20.2726562 C18.7742187,22.3868713 20.4881287,24.1007812 22.6023437,24.1007812 C24.7165588,24.1007812 26.4304687,22.3868713 26.4304687,20.2726562 C26.4304688,18.9049989 25.7008323,17.6412313 24.5164063,16.9574027 C23.3319803,16.273574 21.8727072,16.273574 20.6882812,16.9574027 C19.5038552,17.6412313 18.7742187,18.9049989 18.7742187,20.2726562 Z" id="Shape" fill="#FFFFFF" fill-rule="nonzero"></path>
                <path d="M26.4304687,12.7914062 L20.3109375,12.7914062 C18.9765625,12.7914062 17.7871094,13.0785156 16.7808594,13.6472656 C15.9140625,14.1367187 15.18125,14.83125 14.6070312,15.7089844 C14.5714844,15.7609375 14.5386719,15.815625 14.5058594,15.8675781 C13.4667969,15.8621094 12.6,15.6789062 11.9355469,15.3234375 C11.396875,15.0363281 10.9757812,14.6261719 10.6804687,14.1039062 C10.1308594,13.125 10.1308594,11.9738281 10.1308594,11.3558594 L10.1308594,8.575 C10.1308594,7.6671875 9.8875,7.03828125 9.38984375,6.65546875 C8.91132812,6.28359375 8.3125,6.234375 7.79023437,6.234375 L6.40664062,6.234375 C5.21171875,6.234375 4.42695312,6.978125 4.0796875,8.44375 C3.83359375,9.4828125 2.16289062,16.5566406 1.92226562,17.5765625 C1.34257812,18.3230469 0.9953125,19.2582031 0.9953125,20.2726562 C0.9953125,22.7007812 2.96953125,24.675 5.39765625,24.675 C7.63164062,24.675 9.48007812,23.0042969 9.76171875,20.846875 L18.2355469,20.846875 C18.5171875,23.0042969 20.3683594,24.675 22.5996094,24.675 C25.0277344,24.675 27.0019531,22.7007812 27.0019531,20.2726562 L27.0019531,13.365625 C27.0046875,13.0484375 26.7476562,12.7914062 26.4304687,12.7914062 Z M5.19804687,8.70898438 C5.47421875,7.54414062 5.94179687,7.3828125 6.40664062,7.3828125 L7.79023437,7.3828125 C8.24960938,7.3828125 8.52578125,7.4375 8.68710938,7.56328125 C8.88398437,7.71367188 8.98242188,8.05546875 8.98242188,8.575 L8.98242188,11.3558594 C8.98242188,12.0285156 8.98242188,13.4285156 9.6796875,14.6699219 C10.0816406,15.3863281 10.6585938,15.946875 11.3941406,16.340625 C12.096875,16.7152344 12.95,16.9367187 13.934375,16.9996094 C13.5488281,17.9402344 13.3519531,18.9 13.2890625,19.7011719 L9.76171875,19.7011719 C9.48007812,17.54375 7.62890625,15.8730469 5.39765625,15.8730469 C4.67578125,15.8730469 3.9921875,16.0480469 3.38789062,16.3597656 C3.96484375,13.9261719 5.00664062,9.51289062 5.19804687,8.70898438 Z M5.39765625,23.5265625 C3.60390625,23.5265625 2.14375,22.0664062 2.14375,20.2726562 C2.14375,18.4789062 3.60390625,17.01875 5.39765625,17.01875 C7.19140625,17.01875 8.6515625,18.4789062 8.6515625,20.2726562 C8.6515625,22.0664062 7.19414062,23.5265625 5.39765625,23.5265625 Z M22.6023437,23.5265625 C20.8085937,23.5265625 19.3484375,22.0664062 19.3484375,20.2726562 C19.3484375,18.4789062 20.8085937,17.01875 22.6023437,17.01875 C24.3960937,17.01875 25.85625,18.4789062 25.85625,20.2726562 C25.85625,22.0664062 24.3960937,23.5265625 22.6023437,23.5265625 Z M22.6023437,15.8703125 C20.3683594,15.8703125 18.5199219,17.5410156 18.2382812,19.6984375 L14.4429687,19.6984375 C14.5332031,18.6976562 14.8613281,17.4207031 15.5695312,16.3378906 C16.6085937,14.7464844 18.2054687,13.9398437 20.3136719,13.9398437 L25.85625,13.9398437 L25.85625,17.3085937 C25.0496094,16.4253906 23.8902344,15.8703125 22.6023437,15.8703125 Z M5.39765625,4.4734375 L9.60859375,4.4734375 C9.92578125,4.4734375 10.1828125,4.21640625 10.1828125,3.89921875 C10.1828125,3.58203125 9.92578125,3.325 9.60859375,3.325 L5.39765625,3.325 C5.08046875,3.325 4.8234375,3.58203125 4.8234375,3.89921875 C4.8234375,4.21640625 5.08046875,4.4734375 5.39765625,4.4734375 Z" id="Shape" fill="#000000" fill-rule="nonzero"></path>
                <path d="M5.39765625,19.3894531 C4.9109375,19.3894531 4.51445313,19.7859375 4.51445313,20.2726562 C4.51445313,20.759375 4.9109375,21.1558594 5.39765625,21.1558594 C5.884375,21.1558594 6.28085938,20.759375 6.28085938,20.2726562 C6.28085938,19.7832031 5.88710937,19.3894531 5.39765625,19.3894531 Z M22.6023437,19.3894531 C22.115625,19.3894531 21.7191406,19.7859375 21.7191406,20.2726562 C21.7191406,20.759375 22.115625,21.1558594 22.6023437,21.1558594 C23.0890625,21.1558594 23.4855469,20.759375 23.4855469,20.2726562 C23.4855469,19.7832031 23.0890625,19.3894531 22.6023437,19.3894531 Z M18.9601562,11.2410156 L23.8847656,11.2410156 C25.1753906,11.2410156 26.2253906,10.1910156 26.2253906,8.90039062 L26.2253906,6.16054687 C26.2253906,4.86992187 25.1753906,3.81992187 23.8847656,3.81992187 L18.9601562,3.81992187 C17.6695312,3.81992187 16.6195312,4.86992187 16.6195312,6.16054687 L16.6195312,8.90039062 C16.6195312,10.1910156 17.6695312,11.2410156 18.9601562,11.2410156 Z M17.7679687,6.16054687 C17.7679687,5.5015625 18.3039063,4.96835937 18.9601562,4.96835937 L23.8847656,4.96835937 C24.5410156,4.96835937 25.0769531,5.50429687 25.0769531,6.16054687 L25.0769531,8.90039062 C25.0769531,9.559375 24.5410156,10.0925781 23.8847656,10.0925781 L18.9601562,10.0925781 C18.3039063,10.0925781 17.7679687,9.55664062 17.7679687,8.90039062 L17.7679687,6.16054687 Z" id="Shape" fill="#000000" fill-rule="nonzero"></path>
                <polygon id="Shape" fill="#000000" fill-rule="nonzero" points="19.2335938 6.62265625 23.4746094 6.62265625 23.4746094 7.77109375 19.2335938 7.77109375"></polygon>
            </g>
        </g>
    </g>
</svg>