<?xml version="1.0" encoding="UTF-8"?>
<svg width="28px" height="28px" viewBox="0 0 28 28" version="1.1" xmlns="http://www.w3.org/2000/svg" xmlns:xlink="http://www.w3.org/1999/xlink">
    <!-- Generator: Sketch 50.2 (55047) - http://www.bohemiancoding.com/sketch -->
    <title>Express_icon</title>
    <desc>Created with Sketch.</desc>
    <defs></defs>
    <g id="Express_icon" stroke="none" stroke-width="1" fill="none" fill-rule="evenodd">
        <path d="M23.6153846,11 L4.38461537,11 C4.17219817,11 4.00000001,11.1843533 4,11.4117647 L4,22.3529412 C4.00000001,23.2625866 4.68879269,24 5.53846152,24 L22.4615385,24 C23.3112073,24 24,23.2625866 24,22.3529412 L24,11.4117647 C24,11.1843533 23.8278018,11 23.6153846,11 Z" id="Shape" fill="#6367F0" fill-rule="nonzero"></path>
        <path d="M14.6096561,6 L20.2765154,6 C20.3555975,6 20.4314811,6.03122571 20.4876597,6.0868849 L23.9193935,9.4868849 C24.0370937,9.60349673 24.037976,9.79344417 23.9213642,9.91114439 C23.8650253,9.96800914 23.788297,10 23.7082491,10 L14.6096561,10 L14.6096561,6 Z" id="Rectangle" fill="#6367F0"></path>
        <path d="M4,6 L9.71683033,6 C9.79591251,6 9.87179603,6.03122571 9.92797472,6.0868849 L13.3597084,9.4868849 C13.4774087,9.60349673 13.478291,9.79344417 13.3616792,9.91114439 C13.3053402,9.96800914 13.228612,10 13.1485641,10 L4,10 L4,6 Z" id="Rectangle-Copy" fill="#6367F0" transform="translate(8.724282, 8.000000) scale(-1, 1) translate(-8.724282, -8.000000) "></path>
        <rect id="Rectangle-10" fill="#FFFFFF" x="6" y="17" width="9" height="1.5" rx="0.200000003"></rect>
        <rect id="Rectangle-10-Copy" fill="#FFFFFF" x="6" y="20" width="5" height="1.5" rx="0.200000003"></rect>
    </g>
</svg>