<?xml version="1.0" encoding="UTF-8"?>
<svg width="28px" height="28px" viewBox="0 0 28 28" version="1.1" xmlns="http://www.w3.org/2000/svg" xmlns:xlink="http://www.w3.org/1999/xlink">
    <!-- Generator: Sketch 50.2 (55047) - http://www.bohemiancoding.com/sketch -->
    <title>kf_icon</title>
    <desc>Created with Sketch.</desc>
    <defs></defs>
    <g id="kf_icon" stroke="none" stroke-width="1" fill="none" fill-rule="evenodd">
        <g id="common_icons_officialaccounts" transform="translate(2.000000, 1.000000)" fill="#09BB07" fill-rule="nonzero">
            <path d="M2.5,20 L2.5,19.3154633 C2.5,18.6303744 2.99815091,17.8319079 3.61409761,17.5313327 L9.27445076,14.769143 C10.0953771,14.36854 10.2862591,13.4812624 9.69344522,12.7786389 L9.33191269,12.350138 C8.59631763,11.4782852 8,9.84949648 8,8.70929053 L8,6.99958038 C8,4.79067313 9.79535615,3 12,3 C14.209139,3 16,4.79298022 16,7.00020747 L16,8.71018568 C16,9.84929595 15.4009324,11.4828603 14.6680872,12.351573 L14.3065546,12.7801327 C13.7170324,13.4789507 13.9011877,14.3683976 14.725549,14.7705104 L20.3859024,17.5315576 C21.0012015,17.8316925 21.5,18.6251701 21.5,19.3154633 L21.5,20 C21.5,20.8630413 21.4874295,21 20.5,21 L3.5,21 C2.50774375,21 2.5,20.9355509 2.5,20 Z M11,18.4582295 L12,19.4582295 L13,18.4582295 L12,14.9452153 L11,18.4582295 Z" id="Combined-Shape"></path>
        </g>
    </g>
</svg>