<?xml version="1.0" encoding="UTF-8"?>
<svg width="20px" height="20px" viewBox="0 0 20 20" version="1.1" xmlns="http://www.w3.org/2000/svg" xmlns:xlink="http://www.w3.org/1999/xlink">
    <!-- Generator: Sketch 52.1 (67048) - http://www.bohemiancoding.com/sketch -->
    <title>首页的定位！</title>
    <desc>Created with Sketch.</desc>
    <g id="1008-根据体验版调试" stroke="none" stroke-width="1" fill="none" fill-rule="evenodd">
        <g id="Artboard" transform="translate(-17.000000, -12.000000)">
            <g id="Group-5-Copy" transform="translate(17.000000, 12.000000)">
                <path d="M9.27852171,17.317087 L9.2938837,17.3300022 C9.40030002,17.4225505 9.60117811,17.4229113 9.72147829,17.317087 C9.76251,17.2837459 9.843827,17.2155029 9.95963821,17.114784 C10.1551733,16.9447307 10.3737134,16.7469898 10.6094581,16.5240153 C11.283957,15.8860538 11.9586606,15.17597 12.5870673,14.4141207 C14.2856218,12.3548774 15.3245566,10.3153923 15.3961018,8.47072842 C15.398698,8.40378928 15.4,8.33718948 15.4,8.27093116 C15.4,5.0452832 12.9395587,2.6 9.5,2.6 C6.06044134,2.6 3.6,5.0452832 3.6,8.27093116 C3.6,8.33718948 3.60130196,8.40378928 3.60389819,8.47072842 C3.67544336,10.3153923 4.71437817,12.3548774 6.41293265,14.4141207 C7.04133945,15.17597 7.71604296,15.8860538 8.39054188,16.5240153 C8.62628664,16.7469898 8.8448267,16.9447307 9.04036179,17.114784 C9.156173,17.2155029 9.23749,17.2837459 9.27852171,17.317087 Z" id="Combined-Shape" stroke="#1AAD19" stroke-width="1.2" fill-rule="nonzero"></path>
                <path d="M9.4472327,10.3524281 C8.3426632,10.3524281 7.4472327,9.45699764 7.4472327,8.35242814 C7.4472327,7.24785864 8.3426632,6.35242814 9.4472327,6.35242814 C10.5518022,6.35242814 11.4472327,7.24785864 11.4472327,8.35242814 C11.4472327,9.45699764 10.5518022,10.3524281 9.4472327,10.3524281 Z" id="Oval-78" fill="#1AAD19"></path>
            </g>
        </g>
    </g>
</svg>