<?xml version="1.0" encoding="UTF-8"?>
<svg width="18px" height="18px" viewBox="0 0 18 18" version="1.1" xmlns="http://www.w3.org/2000/svg" xmlns:xlink="http://www.w3.org/1999/xlink">
    <!-- Generator: Sketch 52.1 (67048) - http://www.bohemiancoding.com/sketch -->
    <title>location</title>
    <desc>Created with Sketch.</desc>
    <g id="1008-根据体验版调试" stroke="none" stroke-width="1" fill="none" fill-rule="evenodd">
        <g id="Artboard" transform="translate(-42.000000, -11.000000)" fill-rule="nonzero">
            <g id="Group-5-Copy" transform="translate(42.000000, 12.000000)">
                <path d="M8.00646197,14.0056311 C8.00428169,14.0036657 8.00212751,14.0017895 8,14 L8.00646197,14.0056311 Z M8.44628906,15.7963183 C8.44628906,15.7963183 3,11.3016785 3,6.87899796 C3,3.63211704 5.6862915,1 9,1 C12.3137085,1 15,3.63211704 15,6.87899796 C15,11.3016785 9.55371094,15.7963183 9.55371094,15.7963183 C9.25017366,16.0693562 8.75209517,16.0664277 8.44628906,15.7963183 Z" id="Combined-Shape" stroke="#FFFFFF" stroke-width="1.2"></path>
                <path d="M9,9 C7.8954305,9 7,8.1045695 7,7 C7,5.8954305 7.8954305,5 9,5 C10.1045695,5 11,5.8954305 11,7 C11,8.1045695 10.1045695,9 9,9 Z" id="Oval-78" fill="#FFFFFF"></path>
            </g>
        </g>
    </g>
</svg>