<?xml version="1.0" encoding="UTF-8"?>
<svg width="28px" height="28px" viewBox="0 0 28 28" version="1.1" xmlns="http://www.w3.org/2000/svg" xmlns:xlink="http://www.w3.org/1999/xlink">
    <!-- Generator: Sketch 50.2 (55047) - http://www.bohemiancoding.com/sketch -->
    <title>pay_icon</title>
    <desc>Created with Sketch.</desc>
    <defs></defs>
    <g id="pay_icon" stroke="none" stroke-width="1" fill="none" fill-rule="evenodd">
        <path d="M10.4559763,17.9161321 C10.3384767,17.9730014 10.2063354,18.0056486 10.065775,18.0056486 C9.74109531,18.0056486 9.45851049,17.8339876 9.30989723,17.580533 L9.25316064,17.4611776 L6.88669576,12.4805489 C6.86107279,12.426488 6.84496692,12.3654061 6.84496692,12.3057284 C6.84496692,12.0761449 7.03896945,11.890091 7.27836126,11.890091 C7.37572857,11.890091 7.46540898,11.9206319 7.5378854,11.9725866 L10.3304238,13.8794639 C10.5346755,14.0075953 10.7784598,14.082719 11.0405462,14.082719 C11.1968464,14.082719 11.3461917,14.0546354 11.4849219,14.0061912 L24.6188934,8.4 C22.264874,5.73907771 18.3877517,4 14,4 C6.82007602,4 1,8.65134833 1,14.3895325 C1,17.5205042 2.7511474,20.3383437 5.49170773,22.2431147 C5.71169928,22.3937131 5.85555399,22.6408489 5.85555399,22.9199298 C5.85555399,23.0122547 5.83505561,23.0968566 5.80979868,23.1846178 C5.59090525,23.9677996 5.24060256,25.2217329 5.22413065,25.2807085 C5.1970435,25.3786501 5.15421653,25.4811553 5.15421653,25.5843625 C5.15421653,25.8139461 5.34821906,26 5.58797691,26 C5.6816838,26 5.75855272,25.9662997 5.83798395,25.9227701 L8.68396452,24.3469284 C8.89809939,24.2282751 9.12467971,24.1549067 9.37432071,24.1549067 C9.50719414,24.1549067 9.63567507,24.1745652 9.7564691,24.2100207 C11.0844714,24.5761608 12.5167957,24.779767 14,24.779767 C21.1795579,24.779767 27,20.1280677 27,14.3895325 C27,12.6515079 26.4633817,11.0149354 25.519358,9.57529919 L10.5507814,17.8634753 L10.4559763,17.9161321 Z" id="Fill-10" fill="#09BB07"></path>
    </g>
</svg>