<?xml version="1.0" encoding="UTF-8"?>
<svg width="18px" height="18px" viewBox="0 0 18 18" version="1.1" xmlns="http://www.w3.org/2000/svg" xmlns:xlink="http://www.w3.org/1999/xlink">
    <!-- Generator: Sketch 50.2 (55047) - http://www.bohemiancoding.com/sketch -->
    <title>minip</title>
    <desc>Created with Sketch.</desc>
    <defs></defs>
    <g id="minip" stroke="none" stroke-width="1" fill="none" fill-rule="evenodd">
        <g id="Group-14" fill="#D8D8D8" opacity="0">
            <rect id="Rectangle-29" x="0" y="0" width="18" height="18"></rect>
        </g>
        <path d="M13.7073171,10.0515152 L13.5447154,10.0515152 C13.097561,10.0515152 12.8536585,9.77575758 13.0162602,9.42121212 C13.1382114,9.14545455 13.4227642,8.90909091 13.7886179,8.83030303 C14.9674797,8.55454545 15.8211382,7.64848485 15.8211382,6.54545455 C15.8211382,5.24545455 14.5609756,4.18181818 12.9756098,4.18181818 C11.3902439,4.18181818 10.1300813,5.24545455 10.1300813,6.54545455 L10.1300813,12.4545455 C10.1300813,14.4242424 8.30081301,16 6.06504065,16 C3.82926829,16 2,14.4242424 2,12.4545455 C2,10.7212121 3.42276423,9.26363636 5.29268293,8.98787879 L5.45528455,8.98787879 C5.82113821,8.98787879 6.02439024,9.18484848 6.02439024,9.42121212 C6.02439024,9.5 6.02439024,9.53939394 5.98373984,9.61818182 C5.86178862,9.89393939 5.53658537,10.130303 5.21138211,10.2090909 L5.21138211,10.2090909 C4.03252033,10.4848485 3.17886179,11.3909091 3.17886179,12.4545455 C3.17886179,13.7545455 4.43902439,14.8181818 6.02439024,14.8181818 C7.6097561,14.8181818 8.8699187,13.7545455 8.8699187,12.4545455 L8.8699187,6.54545455 C8.8699187,4.57575758 10.699187,3 12.9349593,3 C15.1707317,3 17,4.57575758 17,6.54545455 C17,8.31818182 15.5772358,9.73636364 13.7073171,10.0515152 Z" id="XMLID_19_" stroke="#000000" stroke-width="0.666666667" fill="#000000" opacity="0.300000012"></path>
    </g>
</svg>