<?xml version="1.0" encoding="UTF-8"?>
<svg width="32px" height="32px" viewBox="0 0 32 32" version="1.1" xmlns="http://www.w3.org/2000/svg" xmlns:xlink="http://www.w3.org/1999/xlink">
    <!-- Generator: Sketch 50.2 (55047) - http://www.bohemiancoding.com/sketch -->
    <title>food_icon</title>
    <desc>Created with Sketch.</desc>
    <defs></defs>
    <g id="=slice=" stroke="none" stroke-width="1" fill="none" fill-rule="evenodd">
        <g id="好房拓-4.0.0-iconfont-2_美食-copy" fill="#000000" fill-rule="nonzero">
            <rect id="Rectangle-path" opacity="0" x="0" y="0" width="32" height="32"></rect>
            <path d="M20.746656,10.88 C20.304832,10.88 19.946656,10.521824 19.946656,10.08 L19.946656,4.32 C19.946656,3.878176 20.304832,3.52 20.746656,3.52 C21.18848,3.52 21.546656,3.878176 21.546656,4.32 L21.546656,10.08 C21.546656,10.521824 21.188512,10.88 20.746656,10.88 Z" id="Shape"></path>
            <path d="M23.733344,10.88 C23.29152,10.88 22.933344,10.521824 22.933344,10.08 L22.933344,4.32 C22.933344,3.878176 23.29152,3.52 23.733344,3.52 C24.175168,3.52 24.533344,3.878176 24.533344,4.32 L24.533344,10.08 C24.533344,10.521824 24.175168,10.88 23.733344,10.88 Z" id="Shape"></path>
            <path d="M9.76,29.12 C7.99552,29.12 6.56,27.68448 6.56,25.92 C6.56,25.864448 6.561568,25.806624 6.564704,25.748128 C6.565024,25.74208 6.565408,25.736032 6.565888,25.729952 L6.574208,25.620736 C6.574656,25.61488 6.575168,25.609056 6.575712,25.6032 L6.57808,25.581024 C6.578144,25.580288 6.57856,25.576704 6.578656,25.575968 L7.740288,14.887744 C6.879072,14.465888 6.116224,13.774144 5.549888,12.891104 C4.849952,11.799872 4.48,10.49584 4.48,9.12 C4.48,7.481856 5.010784,5.935136 5.974624,4.764768 C6.975552,3.549344 8.319904,2.88 9.76,2.88 C11.200096,2.88 12.544448,3.549344 13.545376,4.764768 C14.509216,5.935136 15.04,7.481856 15.04,9.12 C15.04,10.49584 14.670048,11.799872 13.970176,12.891104 C13.40384,13.774144 12.640992,14.465888 11.779808,14.887744 L12.944256,25.60304 C12.944864,25.60896 12.945376,25.614848 12.945792,25.620768 L12.954112,25.730016 C12.954592,25.736064 12.954976,25.742112 12.955296,25.74816 C12.958432,25.806656 12.96,25.86448 12.96,25.920032 C12.96,27.68448 11.52448,29.12 9.76,29.12 Z M8.162016,25.84144 C8.160672,25.8688 8.16,25.8952 8.16,25.92 C8.16,26.80224 8.87776,27.52 9.76,27.52 C10.64224,27.52 11.36,26.80224 11.36,25.92 C11.36,25.895168 11.359328,25.868768 11.357984,25.84144 L11.350752,25.748896 L10.124128,14.46208 C10.0832,14.085408 10.312128,13.731648 10.672544,13.61472 C11.432096,13.368256 12.124928,12.804512 12.62336,12.027328 C13.157632,11.194336 13.44,10.188992 13.44,9.12 C13.44,6.561504 11.789152,4.48 9.76,4.48 C7.730848,4.48 6.08,6.561504 6.08,9.12 C6.08,10.189024 6.3624,11.194368 6.89664,12.02736 C7.395104,12.804544 8.087936,13.368256 8.847488,13.61472 C9.207904,13.731648 9.436832,14.085408 9.395904,14.462112 L8.16864,25.754624 L8.162016,25.84144 Z" id="Shape"></path>
            <path d="M26.72,2.88 C26.278176,2.88 25.92,3.238176 25.92,3.68 L25.92,10.08 C25.92,11.743104 24.799776,13.204896 23.195808,13.634848 C22.814688,13.736992 22.564992,14.10176 22.607616,14.494016 L23.830752,25.748896 L23.838016,25.841408 C23.83936,25.868768 23.840032,25.895168 23.840032,25.920032 C23.840032,26.802272 23.122272,27.520032 22.240032,27.520032 C21.357792,27.520032 20.640032,26.802272 20.640032,25.920032 C20.640032,25.8952 20.640704,25.8688 20.642048,25.84144 L20.648672,25.754624 L21.872512,14.494048 C21.897056,14.26816 21.824352,14.042496 21.672608,13.873376 C21.56736,13.756064 21.430912,13.673632 21.281376,13.634144 C19.678944,13.203136 18.56,11.74208 18.56,10.08 L18.56,3.68 C18.56,3.238176 18.201824,2.88 17.76,2.88 C17.318176,2.88 16.96,3.238176 16.96,3.68 L16.96,10.08 C16.96,12.231584 18.267648,14.148512 20.212736,14.956832 L19.058624,25.576 C19.05856,25.576704 19.058144,25.58032 19.058048,25.581056 L19.05568,25.603232 C19.055104,25.609088 19.054592,25.614912 19.054176,25.620768 L19.045856,25.729984 C19.045376,25.736032 19.044992,25.74208 19.044672,25.74816 C19.041568,25.806624 19.04,25.864448 19.04,25.92 C19.04,27.68448 20.47552,29.12 22.24,29.12 C24.00448,29.12 25.44,27.68448 25.44,25.92 C25.44,25.864448 25.438432,25.806624 25.435328,25.748128 C25.435008,25.74208 25.434624,25.736032 25.434144,25.729984 L25.425824,25.620736 C25.425376,25.614816 25.424864,25.608896 25.424288,25.603008 L24.267328,14.9568 C26.212448,14.148512 27.52,12.231584 27.52,10.08 L27.52,3.68 C27.52,3.238176 27.161824,2.88 26.72,2.88 Z" id="Shape"></path>
        </g>
    </g>
</svg>