<?xml version="1.0" encoding="UTF-8"?>
<svg width="14px" height="12px" viewBox="0 0 14 12" version="1.1" xmlns="http://www.w3.org/2000/svg" xmlns:xlink="http://www.w3.org/1999/xlink">
    <!-- Generator: Sketch 50.2 (55047) - http://www.bohemiancoding.com/sketch -->
    <title>支付icon</title>
    <desc>Created with Sketch.</desc>
    <defs></defs>
    <g id="Page-1" stroke="none" stroke-width="1" fill="none" fill-rule="evenodd">
        <g id="首页" transform="translate(-81.000000, -470.000000)" fill="#09BB07">
            <g id="qrcode" transform="translate(80.000000, 467.000000)">
                <g id="支付icon">
                    <path d="M6.09167957,10.5906175 C6.02841053,10.6216371 5.9572575,10.6394447 5.88157117,10.6394447 C5.70674363,10.6394447 5.55458257,10.5458114 5.47456005,10.4075634 L5.44400957,10.3424605 L4.16975926,7.62575395 C4.15596227,7.59626616 4.14728988,7.56294878 4.14728988,7.53039732 C4.14728988,7.40516994 4.25175278,7.30368597 4.38065606,7.30368597 C4.43308461,7.30368597 4.48137407,7.32034466 4.52039983,7.34868358 L6.02407433,8.38879847 C6.13405603,8.45868837 6.26532451,8.49966491 6.40644798,8.49966491 C6.4906096,8.49966491 6.57102633,8.48434658 6.64572716,8.45792245 L13.7178657,5.4 C12.4503168,3.94858784 10.3626355,3 8,3 C4.13388709,3 1,5.53709909 1,8.66701771 C1,10.3748205 1.94292552,11.9118238 3.41861185,12.9507899 C3.53706884,13.0329344 3.61452907,13.1677358 3.61452907,13.3199617 C3.61452907,13.3703207 3.60349148,13.4164672 3.5898916,13.464337 C3.4720259,13.891527 3.28340138,14.5754907 3.27453189,14.6076592 C3.2599465,14.6610819 3.23688582,14.7169938 3.23688582,14.7732887 C3.23688582,14.898516 3.34134873,15 3.47044911,15 C3.52090666,15 3.56229762,14.981618 3.60506828,14.9578746 L5.13751936,14.0983246 C5.25282275,14.0336046 5.37482754,13.9935854 5.50924961,13.9935854 C5.58079685,13.9935854 5.64997888,14.0043083 5.71502182,14.0236477 C6.43009996,14.2233605 7.20135154,14.3344184 8,14.3344184 C11.8659158,14.3344184 15,11.7971278 15,8.66701771 C15,7.71900431 14.7110517,6.82632839 14.2027312,6.04107228 L6.14272842,10.5618956 L6.09167957,10.5906175 Z" id="Fill-10"></path>
                </g>
            </g>
        </g>
    </g>
</svg>