<?xml version="1.0" encoding="UTF-8"?>
<svg width="22px" height="22px" viewBox="0 0 22 22" version="1.1" xmlns="http://www.w3.org/2000/svg" xmlns:xlink="http://www.w3.org/1999/xlink">
    <!-- Generator: Sketch 50.2 (55047) - http://www.bohemiancoding.com/sketch -->
    <title>pay_icon</title>
    <desc>Created with Sketch.</desc>
    <defs></defs>
    <g id="Page-1" stroke="none" stroke-width="1" fill="none" fill-rule="evenodd">
        <path d="M8.27382796,13.7533748 C8.18344362,13.7973193 8.08179642,13.8225467 7.9736731,13.8225467 C7.72391947,13.8225467 7.50654653,13.6898995 7.39222864,13.4940482 L7.3485851,13.4018191 L5.52822751,9.55315143 C5.50851753,9.51137705 5.4961284,9.46417744 5.4961284,9.41806287 C5.4961284,9.24065741 5.64536112,9.09688846 5.82950866,9.09688846 C5.90440659,9.09688846 5.97339152,9.12048827 6.02914262,9.16063507 L8.17724905,10.6341312 C8.33436576,10.7331419 8.52189216,10.791192 8.72349711,10.791192 C8.843728,10.791192 8.95860904,10.769491 9.06532451,10.7320568 L19.1683796,6.4 C17.3575954,4.34383277 14.3751936,3 11,3 C5.47698156,3 1,6.59422371 1,11.0282751 C1,13.4476624 2.34703646,15.6250838 4.45515979,17.0969523 C4.62438406,17.2133238 4.73504153,17.4042923 4.73504153,17.6199457 C4.73504153,17.6912877 4.71927355,17.7566619 4.69984514,17.8244774 C4.53146558,18.4296633 4.26200197,19.3986118 4.24933127,19.4441838 C4.228495,19.519866 4.19555118,19.5990745 4.19555118,19.6788256 C4.19555118,19.8562311 4.34478389,20 4.52921301,20 C4.60129523,20 4.66042517,19.9739588 4.72152612,19.9403223 L6.91074194,18.7226265 C7.07546107,18.6309398 7.24975363,18.5742461 7.44178516,18.5742461 C7.54399549,18.5742461 7.64282697,18.5894367 7.73574546,18.6168342 C8.75728565,18.8997607 9.85907363,19.0570927 11,19.0570927 C16.5227369,19.0570927 21,15.4625977 21,11.0282751 C21,9.6852561 20.5872167,8.42063188 19.8610446,7.30818573 L8.34675489,13.7126855 L8.27382796,13.7533748 Z" id="Fill-10" fill="#09BB07"></path>
    </g>
</svg>