<?xml version="1.0" encoding="UTF-8"?>
<svg width="14px" height="14px" viewBox="0 0 14 14" version="1.1" xmlns="http://www.w3.org/2000/svg" xmlns:xlink="http://www.w3.org/1999/xlink">
    <!-- Generator: Sketch 50.2 (55047) - http://www.bohemiancoding.com/sketch -->
    <title>qrcode</title>
    <desc>Created with Sketch.</desc>
    <defs></defs>
    <g id="Page-1" stroke="none" stroke-width="1" fill="none" fill-rule="evenodd">
        <g id="首页" transform="translate(-81.000000, -677.000000)" fill-rule="nonzero">
            <g id="Group-3" transform="translate(80.000000, 676.000000)">
                <g id="qrcode">
                    <rect id="Rectangle-path" fill="#000000" opacity="0" x="0" y="0" width="16" height="16"></rect>
                    <path d="M7.36364412,7.36364412 L1,7.36364412 L1,1 L7.36364412,1 L7.36364412,7.36364412 Z M7.36364412,15 L1,15 L1,8.63635588 L7.36364412,8.63635588 L7.36364412,15 Z M6.09091103,6.09091103 L6.09091103,2.27273309 L2.27273309,2.27273309 L2.27273309,6.09091103 L6.09091103,6.09091103 Z M6.09091103,13.7173222 L6.09091103,9.90908897 L2.27273309,9.90908897 L2.27273309,13.7173222 L6.09091103,13.7173222 Z M4.81817794,4.81817794 L3.54544485,4.81817794 L3.54544485,3.54544485 L4.81817794,3.54544485 L4.81817794,4.81817794 Z M4.81817794,12.4545338 L3.54544485,12.4545338 L3.54544485,11.1818007 L4.81817794,11.1818007 L4.81817794,12.4545338 Z M15,7.36364412 L8.63635588,7.36364412 L8.63635588,1 L15,1 L15,7.36364412 Z M15,12.4545338 L11.1818221,12.4545338 L11.1818221,11.1818007 L9.90908897,11.1818007 L9.90908897,14.9999787 L8.63635588,14.9999787 L8.63635588,8.63635588 L12.4545338,8.63635588 L12.4545338,9.90908897 L13.7272669,9.90908897 L13.7272669,8.63635588 L15,8.63635588 L15,12.4545338 Z M13.7272669,6.09091103 L13.7272669,2.27273309 L9.90908897,2.27273309 L9.90908897,6.09091103 L13.7272669,6.09091103 Z M12.4545338,4.81817794 L11.1818007,4.81817794 L11.1818007,3.54544485 L12.4545338,3.54544485 L12.4545338,4.81817794 Z M12.4545338,15 L11.1818007,15 L11.1818007,13.7272669 L12.4545338,13.7272669 L12.4545338,15 Z M15,15 L13.7272669,15 L13.7272669,13.7272669 L15,13.7272669 L15,15 Z" id="Shape" fill="#FA9D3B"></path>
                </g>
            </g>
        </g>
    </g>
</svg>