<?xml version="1.0" encoding="UTF-8"?>
<svg width="18px" height="18px" viewBox="0 0 18 18" version="1.1" xmlns="http://www.w3.org/2000/svg" xmlns:xlink="http://www.w3.org/1999/xlink">
    <!-- Generator: Sketch 50.2 (55047) - http://www.bohemiancoding.com/sketch -->
    <title>search_icon</title>
    <desc>Created with Sketch.</desc>
    <defs></defs>
    <g id="0923-无关系链" stroke="none" stroke-width="1" fill="none" fill-rule="evenodd" opacity="0.300000012">
        <path d="M15.7430947,14.5740557 L11.9100947,10.7395557 C12.5971654,9.80245935 12.9652265,8.66953223 12.9600947,7.50755572 C12.946985,4.47441147 10.4937166,2.01757444 7.46059465,2.00005572 C6.00907481,1.99348843 4.61521603,2.56771229 3.58953064,3.59480646 C2.56384524,4.62190064 1.99153507,6.01654626 2.00009465,7.46805572 C2.01320436,10.5014761 4.46669652,12.958537 7.50009465,12.9760557 C8.66680484,12.9811124 9.80387114,12.6087552 10.7415947,11.9145557 L10.7455947,11.9115557 L14.5750947,15.7430557 C14.7821435,15.9602692 15.0906604,16.0481921 15.3811096,15.9727584 C15.6715587,15.8973248 15.898302,15.6703873 15.9734871,15.3798737 C16.0486722,15.0893602 15.9604853,14.7809186 15.7430947,14.5740557 L15.7430947,14.5740557 Z M7.49609465,11.8780557 C5.06950871,11.8640967 3.1067469,9.89865842 3.09609465,7.47205572 C3.08954524,6.31099854 3.54743104,5.19550612 4.36782487,4.37389147 C5.1882187,3.55227681 6.30302902,3.09273279 7.46409465,3.09755572 C9.89068059,3.1115147 11.8534424,5.07695301 11.8640947,7.50355572 C11.8706441,8.6646129 11.4127583,9.78010532 10.5923644,10.60172 C9.7719706,11.4233346 8.65716028,11.8828786 7.49609465,11.8780557 Z" id="Search" fill="#000000"></path>
    </g>
</svg>