<?xml version="1.0" encoding="UTF-8"?>
<svg width="32px" height="32px" viewBox="0 0 32 32" version="1.1" xmlns="http://www.w3.org/2000/svg" xmlns:xlink="http://www.w3.org/1999/xlink">
    <!-- Generator: Sketch 50.2 (55047) - http://www.bohemiancoding.com/sketch -->
    <title>TC</title>
    <desc>Created with Sketch.</desc>
    <defs></defs>
    <g id="Page-1" stroke="none" stroke-width="1" fill="none" fill-rule="evenodd">
        <g id="首页" transform="translate(-243.000000, -104.000000)">
            <g id="icon_休闲-copy-2" transform="translate(243.000000, 104.000000)">
                <rect id="Rectangle-path" fill="#000000" fill-rule="nonzero" opacity="0" x="0" y="0" width="32" height="32"></rect>
                <g id="停车" stroke-width="1" fill-rule="evenodd" transform="translate(4.000000, 4.000000)">
                    <rect id="Rectangle-path" fill="#000000" fill-rule="nonzero" opacity="0" x="0" y="0" width="24" height="24"></rect>
                    <path d="M10,14 L10,17 C10,17.5522847 9.55228475,18 9,18 C8.44771525,18 7.99999999,17.5522847 7.99999999,17 L7.99999999,7.00000001 C7.99999999,6.44771525 8.44771525,6 9,6 L14,6 C15.4291353,5.9998906 16.7497575,6.76226237 17.4643568,7.9999116 C18.178956,9.23756084 18.178956,10.7624392 17.4643568,12.0000884 C16.7497575,13.2377376 15.4291353,14.0001094 14,14 L10,14 Z M17.096,1.13299999 C17.4262383,1.28060778 17.6510192,1.59505022 17.6838156,1.95528596 C17.7166121,2.31552169 17.5523108,2.6653868 17.2541578,2.87020433 C16.9560049,3.07502186 16.570485,3.10285895 16.246,2.943 C14.9174539,2.31960457 13.4675322,1.99758945 12,1.99999999 C6.477,1.99999999 1.99999999,6.477 1.99999999,12 C1.99999999,17.523 6.477,22 12,22 C17.523,22 22,17.523 22,12 C22,10.527 21.682,9.10000001 21.076,7.79500001 C20.843212,7.29407774 21.0605777,6.69928803 21.5615,6.46650001 C22.0624223,6.23371199 22.657212,6.45107774 22.89,6.95200001 C23.623573,8.53362799 24.0024214,10.2565349 24,12 C24,18.627 18.627,24 12,24 C5.373,24 0,18.627 0,12 C0,5.373 5.373,0 12,0 C13.784,0 15.515,0.39 17.096,1.13299999 Z M10,12 L14,12 C15.1045695,12 16,11.1045695 16,10 C16,8.89543049 15.1045695,7.99999999 14,7.99999999 L10,7.99999999 L10,12 Z" id="Shape" stroke="#FFFFFF" stroke-width="0.5" fill="#444D68" fill-rule="nonzero"></path>
                </g>
            </g>
        </g>
    </g>
</svg>