<?xml version="1.0" encoding="UTF-8"?>
<svg width="18px" height="18px" viewBox="0 0 18 18" version="1.1" xmlns="http://www.w3.org/2000/svg" xmlns:xlink="http://www.w3.org/1999/xlink">
    <!-- Generator: Sketch 52.1 (67048) - http://www.bohemiancoding.com/sketch -->
    <title>tel</title>
    <desc>Created with Sketch.</desc>
    <g id="1008-根据体验版调试" stroke="none" stroke-width="1" fill="none" fill-rule="evenodd">
        <g id="Artboard" transform="translate(-107.000000, -14.000000)" fill-rule="nonzero" stroke="#FFFFFF">
            <g id="Group-7-Copy" transform="translate(107.000000, 14.000000)">
                <path d="M12.4994857,10.4352813 C12.43284,10.399132 12.3949156,10.406775 12.2860327,10.4865752 C12.1557429,10.5820646 12.003546,10.76327 11.6314259,11.2519361 C11.6064899,11.2846764 11.6064899,11.2846764 11.5813976,11.3175656 C11.1333821,11.9043958 10.9047563,12.1584322 10.6116393,12.3092842 C10.4565974,12.3919506 10.3024244,12.4325675 10.1323237,12.4325675 C9.95548175,12.4325675 9.78958784,12.3838233 9.64500155,12.2954909 C8.76721749,11.7826957 8.04428087,11.2395511 7.45161345,10.6419029 C6.84977287,10.0451193 6.30166105,9.32414528 5.79826702,8.47659631 C5.70308343,8.32289159 5.649352,8.14692949 5.649352,7.97317222 C5.649352,7.81022763 5.69255565,7.64498024 5.76609043,7.50983802 C5.89746865,7.25426098 6.1156013,6.98884777 6.50229034,6.57520841 C6.5510834,6.52312187 6.5510834,6.52312187 6.59971277,6.47152447 C7.11030819,5.93030074 7.22027078,5.80712882 7.2873667,5.69089392 C7.35467369,5.5686358 7.36883249,5.51708679 7.34810748,5.44058516 L5.83853613,3.03899983 C5.63616068,2.69364223 5.38125398,2.50911959 5.11177525,2.5000157 C5.07954102,2.49985558 5.06021513,2.5007997 5.03805936,2.50316556 C4.99243975,2.50803695 4.94326537,2.51765167 4.88774561,2.53262926 C4.85377516,2.54179348 4.82326956,2.55123775 4.80057633,2.55893686 C3.61931286,2.98899142 2.23533519,4.68305899 2.23533519,5.75866371 C2.23533519,7.52125161 3.82906669,10.1220498 5.87567723,12.1513785 C7.81927368,14.0785629 9.99109634,15.5060357 11.7930115,15.8618749 C13.103797,16.1207266 14.8745589,14.5448406 15.4370088,13.0267651 C15.4508397,12.9899992 15.4584538,12.9685781 15.4669671,12.9414477 C15.48557,12.8821636 15.4956013,12.83294 15.4989203,12.7863745 C15.5003994,12.7656218 15.5003428,12.7466814 15.4982173,12.7205444 C15.4787019,12.4296975 15.3325586,12.229436 14.9443074,11.9932788 L12.4994857,10.4352813 Z M10.1576438,11.4369422 C10.1576466,11.4369438 10.1576493,11.4369454 10.157652,11.436947 C10.1576496,11.4369455 10.157647,11.4369439 10.1576442,11.4369424 Z M10.1323534,11.4325675 C10.1323435,11.4325675 10.1323336,11.4325675 10.1323237,11.4325675 C10.1323527,11.4325675 10.1323786,11.4325682 10.1324014,11.4325695 Z" id="Combined-Shape"></path>
            </g>
        </g>
    </g>
</svg>