<?xml version="1.0" encoding="UTF-8"?>
<svg width="24px" height="24px" viewBox="0 0 24 24" version="1.1" xmlns="http://www.w3.org/2000/svg" xmlns:xlink="http://www.w3.org/1999/xlink">
    <!-- Generator: Sketch 50.2 (55047) - http://www.bohemiancoding.com/sketch -->
    <title>WAVideoVoiceOff</title>
    <desc>Created with Sketch.</desc>
    <defs></defs>
    <g id="=slice=" stroke="none" stroke-width="1" fill="none" fill-rule="evenodd">
        <g id="iPhone-X-Copy-2" transform="translate(-168.000000, -60.000000)">
            <g id="voice_off" transform="translate(168.000000, 60.000000)">
                <g id="Group-5-Copy">
                    <g id="Group-3-Copy-6">
                        <rect id="Rectangle-9" x="0" y="0" width="24" height="24"></rect>
                        <g id="Group-Copy" transform="translate(2.000000, 3.000000)" stroke="#FFFFFF" stroke-width="1.5">
                            <path d="M0.75,5.266332 L0.75,12.7337097 L5.19249438,12.7337097 L11.25,17.016749 L11.25,0.983292678 L5.19249438,5.266332 L0.75,5.266332 Z" id="Rectangle-2"></path>
                        </g>
                    </g>
                    <path d="M21.3365747,12.2759145 L23.4932503,14.4325902 C23.5713552,14.510695 23.5713552,14.637328 23.4932503,14.7154329 L22.7154329,15.4932503 C22.637328,15.5713552 22.510695,15.5713552 22.4325902,15.4932503 L20.2759145,13.3365747 L18.1192388,15.4932503 C18.041134,15.5713552 17.914501,15.5713552 17.8363961,15.4932503 L17.0585786,14.7154329 C16.9804738,14.637328 16.9804738,14.510695 17.0585786,14.4325902 L19.2152543,12.2759145 L17.0585786,10.1192388 C16.9804738,10.041134 16.9804738,9.91450096 17.0585786,9.8363961 L17.8363961,9.05857864 C17.914501,8.98047379 18.041134,8.98047379 18.1192388,9.05857864 L20.2759145,11.2152543 L22.4325902,9.05857864 C22.510695,8.98047379 22.637328,8.98047379 22.7154329,9.05857864 L23.4932503,9.8363961 C23.5713552,9.91450096 23.5713552,10.041134 23.4932503,10.1192388 L21.3365747,12.2759145 Z" id="Combined-Shape" fill="#FFFFFF"></path>
                </g>
            </g>
        </g>
    </g>
</svg>