<?xml version="1.0" encoding="UTF-8"?>
<svg width="32px" height="32px" viewBox="0 0 32 32" version="1.1" xmlns="http://www.w3.org/2000/svg" xmlns:xlink="http://www.w3.org/1999/xlink">
    <!-- Generator: Sketch 50.2 (55047) - http://www.bohemiancoding.com/sketch -->
    <title>WS</title>
    <desc>Created with Sketch.</desc>
    <defs></defs>
    <g id="=slice=" stroke="none" stroke-width="1" fill="none" fill-rule="evenodd">
        <g id="icon_美食">
            <rect id="Rectangle-path" fill="#000000" fill-rule="nonzero" opacity="0" x="0" y="0" width="32" height="32"></rect>
            <path d="M17.6220732,21.854398 C17.4855281,21.854398 17.3489829,21.8125035 17.2341609,21.7227295 C16.9672772,21.5162493 16.9207277,21.1391985 17.1348553,20.8818464 C18.6089222,19.1013288 20.8060576,18.0509731 23.1676678,18.0001011 C23.5090307,17.9941162 23.7945341,18.2544608 23.8007407,18.5866246 C23.8069473,18.9157959 23.5369604,19.1911028 23.1924942,19.1970878 C21.2001765,19.2389823 19.3475072,20.1247524 18.1030845,21.6269706 C17.9851591,21.7795864 17.8051678,21.854398 17.6220732,21.854398 Z" id="Shape" fill="#FFFFFF" fill-rule="nonzero" transform="translate(20.400423, 19.927199) scale(1, -1) rotate(-300.000000) translate(-20.400423, -19.927199) "></path>
            <path d="M23.0001554,16.6270141 C23.0050982,16.8461607 23.1309214,17.046114 23.3302201,17.1515394 C23.5295187,17.2569648 23.7720078,17.2518422 23.9663273,17.1381016 C24.1606467,17.024361 24.2772683,16.8192862 24.2722535,16.600141 C24.2673108,16.3809943 24.1414876,16.1810411 23.9421889,16.0756157 C23.7428903,15.9701903 23.5004011,15.9753129 23.3060817,16.0890535 C23.1117622,16.202794 22.9951407,16.4078689 23.0001554,16.6270141 Z" id="Shape" fill="#FFFFFF" fill-rule="nonzero"></path>
            <g id="面食" stroke-width="1" fill-rule="evenodd" transform="translate(4.000000, 4.000000)" fill="#000000">
                <rect id="Rectangle-path" fill-rule="nonzero" opacity="0" x="0" y="0" width="24" height="24"></rect>
                <path d="M24,8.7571875 C24.0000995,8.56391363 23.9233659,8.37852717 23.7867006,8.24186189 C23.6500353,8.10519661 23.4646489,8.02846295 23.271375,8.0285625 L12.714,8.0285625 C12.7103236,7.61217597 12.653553,7.19795871 12.5450625,6.7959375 L21.5109375,3.7575 C21.8918344,3.62782428 22.0959618,3.21436975 21.9673125,2.833125 C21.8374751,2.45237655 21.4241208,2.24838246 21.0429375,2.3769375 L11.9559375,5.456625 C11.8325818,5.26150543 11.6957489,5.07523971 11.5464375,4.8991875 L20.52825,2.4466875 C20.9163825,2.3404153 21.1450498,1.93980701 21.0391875,1.5515625 C20.93325,1.1630625 20.5333125,0.93825 20.1440625,1.040625 L10.1623125,3.7663125 C9.43791947,3.36667957 8.6239406,3.1574592 7.796625,3.15825 C7.60335113,3.15815045 7.41796467,3.23488411 7.28129939,3.37154939 C7.14463411,3.50821467 7.06790045,3.69360113 7.068,3.886875 C7.068,4.154625 7.2136875,4.386 7.4285625,4.5125625 L6.756,4.696125 C6.38486312,4.58218724 5.99879489,4.52429912 5.6105625,4.524375 C5.224125,4.524375 4.9111875,4.825875 4.886625,5.2065 L3.4449375,5.60025 C3.18967489,5.6651429 2.9892843,5.86271119 2.9207775,6.11702774 C2.85227069,6.37134429 2.92630751,6.64283677 3.114435,6.82716838 C3.30256248,7.01149998 3.57550749,7.07998822 3.828375,7.0063125 L6.67725,6.228375 C7.02303175,6.39583616 7.32497272,6.64166478 7.5590625,6.9463125 L4.6483125,7.933125 C4.58357925,7.95613855 4.52246276,7.98827521 4.4668125,8.0285625 L0.728625,8.0285625 C0.535351134,8.02846295 0.349964669,8.10519661 0.21329939,8.24186189 C0.0766341108,8.37852717 -9.95487531e-05,8.56391363 -1.32348898e-23,8.7571875 C-1.32348898e-23,11.01975 0.5619375,17.4013125 6.5848125,19.8069375 C6.57564326,19.8530659 6.57093406,19.8999695 6.57075,19.947 L6.57075,22.2553125 C6.57065049,22.4486036 6.64737817,22.6340093 6.78403805,22.7707044 C6.92069792,22.9073994 7.10608389,22.9841748 7.299375,22.984125 L16.700625,22.984125 C16.8939314,22.9842246 17.0793463,22.9074652 17.216017,22.7707594 C17.3526877,22.6340535 17.4293993,22.4486188 17.42925,22.2553125 L17.42925,19.947 C17.4284694,19.8633143 17.4131804,19.780398 17.3840625,19.7019375 C21.9165,17.726625 24,13.2268125 24,8.7571875 Z M11.2554375,8.028375 L9.505125,8.028375 C9.498375,7.9633125 9.485625,7.8999375 9.4756875,7.836 L11.158125,7.2658125 C11.2171875,7.5114375 11.2516875,7.765875 11.2554375,8.028375 Z M8.4451875,5.7459375 L9.9140625,5.344875 C10.1387486,5.51928636 10.3412529,5.7205313 10.5170625,5.944125 L8.985375,6.4633125 C8.83328522,6.20435227 8.65204216,5.96365947 8.4451875,5.7459375 Z M15.972,21.5266875 L8.028,21.5266875 L8.028,20.2760625 C9.1805625,20.5725 10.495875,20.7410625 12,20.7410625 C13.466625,20.7410625 14.787,20.5494375 15.972,20.206125 L15.972,21.5266875 Z M12,19.2838125 C3.1558125,19.2838125 1.6445625,12.924375 1.4750625,9.4858125 L22.5219375,9.4858125 C22.255875,14.161875 19.394625,19.2838125 12,19.2838125 Z" id="Shape" fill-rule="nonzero"></path>
            </g>
        </g>
    </g>
</svg>