<?xml version="1.0" encoding="UTF-8"?>
<svg width="28px" height="28px" viewBox="0 0 28 28" version="1.1" xmlns="http://www.w3.org/2000/svg" xmlns:xlink="http://www.w3.org/1999/xlink">
    <!-- Generator: Sketch 50.2 (55047) - http://www.bohemiancoding.com/sketch -->
    <title>Takeaway_icon</title>
    <desc>Created with Sketch.</desc>
    <defs></defs>
    <g id="Takeaway_icon" stroke="none" stroke-width="1" fill="none" fill-rule="evenodd">
        <path d="M11.3836884,17.6425339 C11.7030951,18.3195584 11.8823529,19.0804149 11.8823529,19.8846154 C11.8823529,22.7097643 9.67011288,25 6.94117647,25 C4.21224006,25 2,22.7097643 2,19.8846154 C2,18.1260616 2.85715796,16.5747662 4.16254111,15.6540793 C4.16804169,15.5713037 4.18094396,15.4878607 4.20171938,15.4045351 L6.1346682,7.65190081 L6.1346682,7.46153846 C6.1346682,6.68184234 6.76673678,6.04977376 7.5464329,6.04977376 L12.0441542,6.04977376 L12.0441542,8.87330317 L8.74010628,8.87330317 L7.26735186,14.7801985 C7.39059245,14.7885129 7.51260075,14.8015048 7.63321274,14.8190045 L20.3667873,14.8190045 C20.5929181,14.786195 20.8239572,14.7692308 21.0588235,14.7692308 C21.2936899,14.7692308 21.5247289,14.786195 21.7508598,14.8190045 L24.9615385,14.8190045 C25.7412346,14.8190045 26.3733032,15.4510731 26.3733032,16.2307692 L26.3733032,17.6425339 L25.5013355,17.6425339 C25.8207421,18.3195584 26,19.0804149 26,19.8846154 C26,22.7097643 23.7877599,25 21.0588235,25 C18.3298871,25 16.1176471,22.7097643 16.1176471,19.8846154 C16.1176471,19.0804149 16.2969049,18.3195584 16.6163116,17.6425339 L11.3836884,17.6425339 Z M16.1176471,6 L24.5882353,6 C25.3679314,6 26,6.63206859 26,7.41176471 L26,13.3076923 L14.7058824,13.3076923 L14.7058824,7.41176471 C14.7058824,6.63206859 15.3379509,6 16.1176471,6 Z M21.0588235,22.0769231 C22.2283677,22.0769231 23.1764706,21.0953935 23.1764706,19.8846154 C23.1764706,18.6738373 22.2283677,17.6923077 21.0588235,17.6923077 C19.8892794,17.6923077 18.9411765,18.6738373 18.9411765,19.8846154 C18.9411765,21.0953935 19.8892794,22.0769231 21.0588235,22.0769231 Z M6.94117647,22.0769231 C8.11072065,22.0769231 9.05882353,21.0953935 9.05882353,19.8846154 C9.05882353,18.6738373 8.11072065,17.6923077 6.94117647,17.6923077 C5.77163229,17.6923077 4.82352941,18.6738373 4.82352941,19.8846154 C4.82352941,21.0953935 5.77163229,22.0769231 6.94117647,22.0769231 Z" id="Combined-Shape-Copy" fill="#FA9D3B"></path>
    </g>
</svg>