<?xml version="1.0" encoding="UTF-8"?>
<svg width="28px" height="28px" viewBox="0 0 28 28" version="1.1" xmlns="http://www.w3.org/2000/svg" xmlns:xlink="http://www.w3.org/1999/xlink">
    <!-- Generator: Sketch 50.2 (55047) - http://www.bohemiancoding.com/sketch -->
    <title>SALE_icon</title>
    <desc>Created with Sketch.</desc>
    <defs></defs>
    <g id="SALE_icon" stroke="none" stroke-width="1" fill="none" fill-rule="evenodd">
        <path d="M17.2977504,3.56568542 L24.6516609,10.9195959 C24.9640803,11.2320154 24.9640803,11.7385474 24.6516609,12.0509668 L14.6693233,22.0333044 C14.631816,22.0708117 14.5809452,22.0918831 14.5279019,22.0918831 L6.65164684,22.0918831 C6.48918718,22.0918831 6.35624645,21.9625634 6.35176119,21.8001656 L6.12784023,13.6926654 C6.12632288,13.6377267 6.14748034,13.5845846 6.18634264,13.5457223 L16.1663795,3.56568542 C16.478799,3.25326599 16.9853309,3.25326599 17.2977504,3.56568542 Z M11,19 C12.1045695,19 13,18.1045695 13,17 C13,15.8954305 12.1045695,15 11,15 C9.8954305,15 9,15.8954305 9,17 C9,18.1045695 9.8954305,19 11,19 Z" id="Combined-Shape" fill="#FA9D3B"></path>
    </g>
</svg>