<?xml version="1.0" encoding="UTF-8"?>
<svg width="32px" height="32px" viewBox="0 0 32 32" version="1.1" xmlns="http://www.w3.org/2000/svg" xmlns:xlink="http://www.w3.org/1999/xlink">
    <!-- Generator: Sketch 50.2 (55047) - http://www.bohemiancoding.com/sketch -->
    <title>booking_icon</title>
    <desc>Created with Sketch.</desc>
    <defs></defs>
    <g id="=slice=" stroke="none" stroke-width="1" fill="none" fill-rule="evenodd">
        <g id="icon-tel" transform="translate(4.000000, 4.000000)" fill="#000000" fill-rule="nonzero">
            <rect id="Rectangle-path" opacity="0" x="0" y="0" width="24" height="24"></rect>
            <path d="M3.7010526,20.5257776 L8.27947299,15.3271802 L10.2456537,17.1849805 L11.0184685,17.8028762 L12.1776906,16.814277 C13.2081272,15.9492376 13.2468202,15.6265705 14.1484459,14.637947 C15.0500716,13.5257639 15.9320606,12.612382 16.7048501,11.5001989 L17.6064758,10.2644317 L14.9204585,8.04730639 L19.5853379,3.00002333 L21.5173749,4.73010219 C21.6461605,4.85366192 21.7749713,5.59511734 21.2597531,7.20161222 C20.8733457,8.31379537 20.0412045,10.140872 19.1395788,11.5001989 C18.1091675,12.983134 16.9915696,14.854879 15.7035365,16.3377899 C14.4155034,17.8207007 12.9153637,19.0728291 11.3697341,20.1850122 C10.081701,21.2971954 9.43869517,21.6616659 8.27947299,22.2795373 C6.60503249,22.897433 6.3567555,22.7140596 6.09915898,22.7140596 C6.09915898,22.6316865 5.29979019,21.9022591 3.7010526,20.5257776 Z M18.5496548,1.14637462 L18.8423286,1.43907717 L13.8667013,7.00002333 L13.5740275,6.85370078 C13.281325,6.56099823 13.281325,6.26832442 13.281325,5.97565061 C13.281325,5.53662552 13.4276763,4.95124915 13.8667013,4.65857535 L16.3545294,1.73172223 C16.7935545,1.29269713 17.5252534,1.00002333 18.1106297,1.00002333 C18.2569523,1.00005207 18.4033035,1.14637462 18.5496548,1.14637462 Z M6.83729127,14.1263976 L6.96366554,14.2527967 L2.79276795,19.1820642 L2.66639368,19.055665 C2.41359546,18.8028917 2.41359546,18.5500934 2.41359546,18.29732 C2.41359546,17.9181475 2.53996976,17.4125759 2.91916708,17.1598025 L5.06780302,14.6319692 C5.32060124,14.2527967 5.95254715,14.0000233 6.45811876,14.0000233 C6.58449305,14.0000233 6.71089215,14.1263976 6.83729127,14.1263976 Z M19.0393752,0.614735789 C18.6814873,0.256801055 18.2042332,0.13748168 17.7269791,0.0181622812 C16.6531749,-0.10113368 15.5793707,0.376097016 14.8635013,1.21128586 L12.8352123,3.59753299 C11.6420887,4.90995251 11.6420887,6.81894555 12.8352123,7.89274973 L15.8180095,10.5176122 C15.10214,11.472097 14.3862706,12.4265818 13.5510817,13.3810901 C12.7158929,14.3355749 11.880704,15.1707637 11.0455386,16.0059525 L8.06271799,13.3810901 C7.70478326,13.0231553 7.22752915,12.9038359 6.75027504,12.78454 C5.79579023,12.6652206 4.60266668,13.1424747 3.88679721,13.9776401 L1.85850823,16.3638873 C0.665384648,17.6763068 0.665384648,19.5852998 1.85850823,20.659104 L5.07992079,23.5225818 L5.19921673,23.6419012 C5.4378555,23.7611972 5.67647084,23.8805165 6.03440557,23.9998359 L6.3923403,23.9998359 C7.10820975,23.9998359 8.06271799,23.7612206 9.13652217,23.2839665 C11.5227459,22.0908429 14.5055431,19.7046192 17.0110862,16.6025026 C19.6359487,13.6197054 21.5449417,10.3982928 22.3801071,7.77343036 C23.096,5.74514138 23.096,4.43269842 22.3801071,3.59753299 L19.0393752,0.614735789 Z" id="Shape"></path>
        </g>
    </g>
</svg>